<?xml version="1.0" encoding="UTF-8"?>
<svg version="1.1" xmlns="http://www.w3.org/2000/svg" width="1280" height="698">
<path d="M0 0 C0.33 0.99 0.66 1.98 1 3 C-0.35534317 5.25992051 -1.73273079 7.28023116 -3.3125 9.375 C-3.7674585 9.9942334 -4.22241699 10.6134668 -4.69116211 11.25146484 C-8.56971949 16.50344149 -12.54973141 21.6799693 -16.5546875 26.8359375 C-19.64961622 30.84055773 -22.67761695 34.89303093 -25.69921875 38.953125 C-27.56243007 41.42053558 -29.45053341 43.86185233 -31.35546875 46.296875 C-34.8673242 50.80158893 -38.25639416 55.38769107 -41.625 60 C-46.99041054 67.32123858 -52.44601392 74.56525967 -58.00048828 81.74414062 C-58.7678833 82.73897461 -58.7678833 82.73897461 -59.55078125 83.75390625 C-60.00106689 84.33470947 -60.45135254 84.9155127 -60.9152832 85.51391602 C-62.08258429 87.02675021 -62.08258429 87.02675021 -63 89 C-63.66 89 -64.32 89 -65 89 C-65.28875 89.763125 -65.5775 90.52625 -65.875 91.3125 C-67 94 -67 94 -69 97 C-69.66 97 -70.32 97 -71 97 C-71.22558594 97.515625 -71.45117188 98.03125 -71.68359375 98.5625 C-73.50367531 101.93262135 -75.78051486 104.93482078 -78.0625 108 C-78.55637207 108.66789551 -79.05024414 109.33579102 -79.55908203 110.02392578 C-81.03590511 112.01856501 -82.51727552 114.00974521 -84 116 C-84.74894531 117.00804687 -85.49789063 118.01609375 -86.26953125 119.0546875 C-89.56103608 123.46371623 -92.87942125 127.84919575 -96.23828125 132.20703125 C-97.38817307 133.70040362 -98.53791147 135.19389414 -99.6875 136.6875 C-100.24912842 137.41622314 -100.81075684 138.14494629 -101.3894043 138.89575195 C-104.7973208 143.34453991 -108.02601922 147.84137513 -110.94921875 152.62890625 C-111.29597656 153.08136719 -111.64273437 153.53382813 -112 154 C-112.66 154 -113.32 154 -114 154 C-114.27223389 154.57854736 -114.54446777 155.15709473 -114.82495117 155.75317383 C-115.99602471 157.9923988 -117.29902019 159.91915566 -118.80078125 161.94921875 C-119.35902588 162.70605957 -119.91727051 163.46290039 -120.49243164 164.24267578 C-121.0930542 165.04946777 -121.69367676 165.85625977 -122.3125 166.6875 C-122.93697021 167.53038574 -123.56144043 168.37327148 -124.20483398 169.24169922 C-130.90703062 178.26417959 -137.74807191 187.17856692 -144.60449219 196.08398438 C-151.49902885 205.04478643 -158.28895208 214.07125624 -164.97583008 223.18823242 C-169.06585252 228.75649358 -173.23575224 234.25037039 -177.46875 239.7109375 C-182.39182999 246.07987351 -187.1821555 252.55137308 -192 259 C-179.21738375 260.94959436 -166.36747423 261.98714576 -153.48699951 263.05859375 C-146.97627999 263.60077894 -140.46664493 264.1556547 -133.95703125 264.7109375 C-132.6618457 264.82129333 -131.36666016 264.93164917 -130.03222656 265.04534912 C-119.30645096 265.96378033 -108.58935918 266.95763431 -97.875 268 C-78.41858375 269.89174201 -58.94914236 271.62661607 -39.47607422 273.33789062 C-38.30874756 273.44100052 -37.1414209 273.54411041 -35.9387207 273.65034485 C-33.75002915 273.84364756 -31.56123329 274.03577445 -29.37231445 274.22648621 C-23.89683984 274.71082115 -18.4493702 275.27793612 -13 276 C-12.67 276.99 -12.34 277.98 -12 279 C-14.25164967 280.12582484 -15.94875761 280.3288709 -18.44726562 280.62915039 C-19.38335159 280.74371582 -20.31943756 280.85828125 -21.28388977 280.97631836 C-22.31426865 281.09885986 -23.34464752 281.22140137 -24.40625 281.34765625 C-26.6506482 281.62171616 -28.89503229 281.89589167 -31.1394043 282.17016602 C-32.33624847 282.31511505 -33.53309265 282.46006409 -34.76620483 282.60940552 C-56.43412797 285.23879893 -78.06950752 288.04863092 -99.6875 291.0625 C-100.8885437 291.22986664 -102.0895874 291.39723328 -103.32702637 291.56967163 C-105.73534285 291.90534944 -108.14365788 292.24103764 -110.55197144 292.57673645 C-111.7297818 292.74090561 -112.90759216 292.90507477 -114.12109375 293.07421875 C-115.28561066 293.23665573 -116.45012756 293.39909271 -117.64993286 293.56645203 C-131.33234391 295.47087778 -145.02613713 297.2888761 -158.72143555 299.09790039 C-168.15587936 300.34530063 -177.582791 301.62722335 -187 303 C-183.27329639 308.8833012 -179.1905965 314.42916461 -174.9375 319.9375 C-170.34711687 325.88283216 -165.87057966 331.89127238 -161.5 338 C-156.63497334 344.79512507 -151.63149847 351.46588959 -146.53222656 358.08666992 C-142.90484989 362.8003761 -139.36657861 367.56762928 -135.890625 372.39453125 C-133.79159785 375.28719883 -131.64964885 378.14476913 -129.5 381 C-125.9026238 385.7799904 -122.36563636 390.59926407 -118.86328125 395.44921875 C-116.64171313 398.49048497 -114.35067962 401.47426358 -112.03125 404.44140625 C-111 406 -111 406 -111 408 C-110.34 408 -109.68 408 -109 408 C-108.67 409.32 -108.34 410.64 -108 412 C-107.34 412 -106.68 412 -106 412 C-104.4921875 413.96875 -104.4921875 413.96875 -102.875 416.5 C-102.33617187 417.3353125 -101.79734375 418.170625 -101.2421875 419.03125 C-100.83226562 419.6809375 -100.42234375 420.330625 -100 421 C-100.33 421.66 -100.66 422.32 -101 423 C-104.6985143 421.32537004 -107.90843355 419.05199689 -111.1875 416.6875 C-111.79335938 416.25308594 -112.39921875 415.81867188 -113.0234375 415.37109375 C-118.6635774 411.29829496 -124.17409353 407.06216328 -129.68481445 402.81689453 C-134.56721527 399.06611044 -139.51605783 395.43542536 -144.54418945 391.88330078 C-149.63953731 388.27780801 -154.66697909 384.58381798 -159.6875 380.875 C-165.52501382 376.56305675 -171.36919574 372.26212813 -177.24609375 368.00390625 C-179.43084871 366.41414838 -181.60968058 364.81723051 -183.78515625 363.21484375 C-184.78434082 362.47947388 -184.78434082 362.47947388 -185.80371094 361.72924805 C-187.10336519 360.77219832 -188.40224622 359.81409731 -189.70019531 358.85473633 C-192.56892343 356.74322617 -195.44040339 354.70460323 -198.44921875 352.796875 C-199.29097656 352.20390625 -200.13273437 351.6109375 -201 351 C-201 350.34 -201 349.68 -201 349 C-201.67417969 348.77570313 -202.34835937 348.55140625 -203.04296875 348.3203125 C-206.84188632 346.62409831 -209.97159576 344.33164843 -213.3125 341.875 C-213.95767578 341.40707031 -214.60285156 340.93914062 -215.26757812 340.45703125 C-216.84848894 339.3094071 -218.42472301 338.15534523 -220 337 C-219.98640442 337.74025925 -219.97280884 338.48051849 -219.95880127 339.24320984 C-219.86506516 348.57240803 -220.45139924 357.79061856 -221.171875 367.08203125 C-221.29591296 368.72685427 -221.41956067 370.37170675 -221.54284668 372.0165863 C-221.87141046 376.3822972 -222.20623544 380.74750584 -222.54255676 385.11262512 C-222.82080084 388.73397329 -223.09531731 392.35560048 -223.36994553 395.97722435 C-225.06361294 418.29852736 -226.83193258 440.61250458 -228.73242188 462.91723633 C-229.95449566 477.26975133 -231.04541994 491.62697335 -232 506 C-232.99 506 -233.98 506 -235 506 C-242.19368109 462.27351973 -242.19368109 462.27351973 -245.13745117 442.19165039 C-246.23578963 434.77722928 -247.43375525 427.38585156 -248.68301392 419.99549866 C-250.79228172 407.50851814 -252.78878856 395.01214811 -254.640625 382.484375 C-254.74848202 381.75522196 -254.85633904 381.02606892 -254.96746445 380.27482033 C-255.84540546 374.3330129 -256.71698947 368.39027665 -257.5871582 362.44732666 C-258.24768342 357.93702211 -258.91087897 353.42712784 -259.5779953 348.91779327 C-259.88480628 346.83634991 -260.18761809 344.75435008 -260.49029541 342.67230225 C-260.76628571 340.80568939 -260.76628571 340.80568939 -261.04785156 338.90136719 C-261.20819885 337.80604675 -261.36854614 336.71072632 -261.53375244 335.58221436 C-261.87064119 333.0244108 -261.87064119 333.0244108 -263 331 C-270.42504668 336.80475048 -277.34133209 343.01287997 -284.1640625 349.50610352 C-288.07199402 353.22089908 -292.04985276 356.82489012 -296.12329102 360.35742188 C-299.72016632 363.50556511 -303.18762057 366.79511616 -306.6796875 370.05859375 C-309 372 -309 372 -311 372 C-311 372.66 -311 373.32 -311 374 C-312.51151546 375.35097374 -314.08813313 376.62927345 -315.6875 377.875 C-320.96004663 382.07249492 -325.89508433 386.52502725 -330.75854492 391.18896484 C-334.78942367 395 -334.78942367 395 -337 395 C-337 395.66 -337 396.32 -337 397 C-338.2578125 398.3046875 -338.2578125 398.3046875 -340.125 399.875 C-340.84558594 400.48859375 -341.56617188 401.1021875 -342.30859375 401.734375 C-343.19675781 402.48203125 -344.08492187 403.2296875 -345 404 C-346.77752533 405.50920983 -348.55251112 407.02132253 -350.32568359 408.53564453 C-351.54391532 409.57559844 -352.76421593 410.61313487 -353.98681641 411.64794922 C-356.70631998 413.96383003 -359.32479627 416.29056747 -361.80078125 418.8671875 C-364 421 -364 421 -366 421 C-366 421.66 -366 422.32 -366 423 C-367.43359375 424.4453125 -367.43359375 424.4453125 -369.4375 426.125 C-373.41621323 429.49378571 -377.2770561 432.9703982 -381.1171875 436.49609375 C-383 438 -383 438 -385 438 C-385 438.66 -385 439.32 -385 440 C-386.36328125 441.375 -386.36328125 441.375 -388.3125 443 C-391.71647448 445.88858397 -395.03082398 448.84793678 -398.3125 451.875 C-402.91955292 456.08533447 -407.68481248 460.03873132 -412.546875 463.94921875 C-414.68137529 465.73363381 -416.63291171 467.56265971 -418.5625 469.5625 C-419.366875 470.366875 -420.17125 471.17125 -421 472 C-421.66 472 -422.32 472 -423 472 C-423 472.66 -423 473.32 -423 474 C-424.69903023 475.51740976 -426.46072723 476.965128 -428.25 478.375 C-431.05313312 480.59229313 -433.73701197 482.7305752 -436.234375 485.2890625 C-438 487 -438 487 -440 487 C-440 487.66 -440 488.32 -440 489 C-441.2578125 490.3046875 -441.2578125 490.3046875 -443.125 491.875 C-443.84429687 492.48730469 -444.56359375 493.09960938 -445.3046875 493.73046875 C-446.19414062 494.47941406 -447.08359375 495.22835938 -448 496 C-449.79373859 497.52555962 -451.58483878 499.05414547 -453.37451172 500.58447266 C-454.60605443 501.63710341 -455.83939941 502.68762993 -457.07470703 503.73583984 C-459.58585211 505.876362 -461.99454035 507.9943825 -464.296875 510.36328125 C-466 512 -466 512 -468 512 C-468 512.66 -468 513.32 -468 514 C-469.6796875 515.7265625 -469.6796875 515.7265625 -471.875 517.625 C-472.59429687 518.25664063 -473.31359375 518.88828125 -474.0546875 519.5390625 C-476 521 -476 521 -478 521 C-478 521.66 -478 522.32 -478 523 C-479.45029169 524.28744114 -480.96497157 525.50236776 -482.5 526.6875 C-487.54827747 530.71572655 -492.25953176 534.98654179 -496.9375 539.4375 C-501.80523193 544.04702899 -506.69503614 548.60500643 -511.8125 552.9375 C-512.74707031 553.73027344 -513.68164062 554.52304687 -514.64453125 555.33984375 C-517 557 -517 557 -520 557 C-520 556.01 -520 555.02 -520 554 C-519.34 554 -518.68 554 -518 554 C-517.73832031 553.42894531 -517.47664063 552.85789062 -517.20703125 552.26953125 C-512.89456415 544.16097661 -505.69558327 537.30453281 -499.66357422 530.42236328 C-496.73213765 527.06143115 -493.92781288 523.68024239 -491.3125 520.0625 C-490.549375 519.051875 -489.78625 518.04125 -489 517 C-488.34 517 -487.68 517 -487 517 C-486.78472656 516.47535156 -486.56945312 515.95070313 -486.34765625 515.41015625 C-484.47139201 512.05463441 -481.96509119 509.30914073 -479.4375 506.4375 C-478.34013436 505.17535788 -477.24378823 503.91232866 -476.1484375 502.6484375 C-475.60928711 502.02678711 -475.07013672 501.40513672 -474.51464844 500.76464844 C-472.48511729 498.40013342 -470.52054107 495.98639471 -468.5625 493.5625 C-464.42235776 488.46058244 -460.12454617 483.50845082 -455.8059082 478.55810547 C-452.55268026 474.81982653 -449.36746975 471.04073621 -446.25 467.1875 C-442.71808913 462.82417215 -439.01293064 458.6616152 -435.234375 454.51171875 C-432.99865467 451.99848768 -430.86622318 449.42688521 -428.75 446.8125 C-424.58915231 441.67305572 -420.28265511 436.67673848 -415.94067383 431.69091797 C-411.9535878 427.10956654 -408.01214495 422.49289557 -404.09863281 417.84863281 C-401.22338268 414.4388409 -398.3274741 411.04787747 -395.41772461 407.66748047 C-385.73751242 396.69558354 -385.73751242 396.69558354 -377 385 C-376.34 385 -375.68 385 -375 385 C-374.72744385 384.40977051 -374.4548877 383.81954102 -374.17407227 383.21142578 C-373.0299285 381.05637188 -371.82057614 379.4441707 -370.21484375 377.6171875 C-369.41916992 376.70259766 -369.41916992 376.70259766 -368.60742188 375.76953125 C-368.05634766 375.14433594 -367.50527344 374.51914062 -366.9375 373.875 C-365.8406326 372.62398515 -364.74549606 371.37144995 -363.65234375 370.1171875 C-362.92519165 369.29130127 -362.92519165 369.29130127 -362.18334961 368.44873047 C-360.90366815 366.99022263 -360.90366815 366.99022263 -360 365 C-359.34 365 -358.68 365 -358 365 C-357.7421875 364.43796875 -357.484375 363.8759375 -357.21875 363.296875 C-355.85830223 360.73295421 -354.27211038 358.54773635 -352.5 356.25 C-351.8915625 355.45078125 -351.283125 354.6515625 -350.65625 353.828125 C-350.1096875 353.22484375 -349.563125 352.6215625 -349 352 C-348.34 352 -347.68 352 -347 352 C-346.71125 351.401875 -346.4225 350.80375 -346.125 350.1875 C-345 348 -345 348 -343 345 C-342.34 345 -341.68 345 -341 345 C-340.72744385 344.40977051 -340.4548877 343.81954102 -340.17407227 343.21142578 C-339.0299285 341.05637188 -337.82057614 339.4441707 -336.21484375 337.6171875 C-335.41916992 336.70259766 -335.41916992 336.70259766 -334.60742188 335.76953125 C-334.05634766 335.14433594 -333.50527344 334.51914062 -332.9375 333.875 C-331.8406326 332.62398515 -330.74549606 331.37144995 -329.65234375 330.1171875 C-328.92519165 329.29130127 -328.92519165 329.29130127 -328.18334961 328.44873047 C-326.90366815 326.99022263 -326.90366815 326.99022263 -326 325 C-325.34 325 -324.68 325 -324 325 C-323.72526855 324.40759521 -323.45053711 323.81519043 -323.16748047 323.20483398 C-322.05026428 321.09492612 -320.8862591 319.51319754 -319.3203125 317.72265625 C-318.54494141 316.82836914 -318.54494141 316.82836914 -317.75390625 315.91601562 C-317.21636719 315.30435547 -316.67882812 314.69269531 -316.125 314.0625 C-315.06434446 312.8457139 -314.00443424 311.62827765 -312.9453125 310.41015625 C-312.47625488 309.87527588 -312.00719727 309.34039551 -311.52392578 308.78930664 C-309.63086314 306.56658058 -307.8154736 304.28630562 -306 302 C-317.74494233 299.92955192 -329.48756998 298.24302697 -341.33306885 296.8659668 C-353.78963905 295.41453451 -366.22893968 293.90843439 -378.625 292 C-389.31457365 290.35838987 -400.02215251 288.92614475 -410.75 287.5625 C-411.56386169 287.45893188 -412.37772339 287.35536377 -413.21624756 287.24865723 C-420.05466877 286.37934778 -426.89398891 285.51719383 -433.73339844 284.65570068 C-439.20187887 283.96672701 -444.67004546 283.2753549 -450.13781738 282.58078003 C-452.70843852 282.25526292 -455.2794943 281.93334873 -457.85058594 281.61157227 C-459.41603839 281.41310263 -460.98146928 281.21446284 -462.546875 281.015625 C-463.26061279 280.92729904 -463.97435059 280.83897308 -464.7097168 280.74797058 C-467.61330555 280.37590928 -470.21321226 279.92892925 -473 279 C-473 278.01 -473 277.02 -473 276 C-448.28022238 273.58082 -423.56028915 271.1788487 -398.8125 269.0625 C-381.48411478 267.57520096 -364.15894423 266.05324163 -346.83829403 264.47838688 C-343.16765326 264.14464483 -339.49686946 263.81278588 -335.82559204 263.4861145 C-331.70993126 263.11977302 -327.59519467 262.74388508 -323.48046875 262.3671875 C-322.25121674 262.25897171 -321.02196472 262.15075592 -319.75546265 262.03926086 C-313.34819532 261.44394925 -307.24474499 260.56149888 -301 259 C-308.62228437 248.63278099 -316.26053364 238.2801261 -324 228 C-324.68964844 227.07703125 -325.37929688 226.1540625 -326.08984375 225.203125 C-329.87877877 220.1329407 -333.69518599 215.08707002 -337.55126953 210.06787109 C-343.32817706 202.54634094 -349.00592601 194.96015732 -354.61669922 187.31396484 C-358.98078501 181.37063382 -363.38529967 175.4589507 -367.8125 169.5625 C-368.43954834 168.72630127 -369.06659668 167.89010254 -369.71264648 167.02856445 C-372.44340014 163.39009309 -375.1802788 159.75703727 -377.9453125 156.14453125 C-378.37352295 155.58241943 -378.8017334 155.02030762 -379.24291992 154.44116211 C-380.34444136 152.99700514 -381.4512758 151.55690476 -382.55859375 150.1171875 C-384 148 -384 148 -384 146 C-384.66 146 -385.32 146 -386 146 C-386.33 144.35 -386.66 142.7 -387 141 C-380.62939097 143.88480409 -375.30807433 147.54339996 -369.71972656 151.72509766 C-366.34096102 154.2299122 -362.91510351 156.67010738 -359.5 159.125 C-353.02813874 163.78761193 -346.59811241 168.50361318 -340.1875 173.25 C-333.86409366 177.93010018 -327.47780628 182.47639583 -320.984375 186.91796875 C-316.85011625 189.80220948 -312.84319414 192.84490601 -308.82421875 195.88671875 C-305.49053815 198.38121557 -302.09166993 200.76637247 -298.671875 203.140625 C-287.59561389 210.84866636 -276.76437543 218.86380974 -266 227 C-265.12946361 221.47746216 -264.66520647 215.99200992 -264.31640625 210.4140625 C-264.25661087 209.4914563 -264.19681549 208.5688501 -264.13520813 207.61828613 C-263.94167558 204.62068652 -263.75206843 201.62285267 -263.5625 198.625 C-263.42940098 196.55451176 -263.29609871 194.48403658 -263.16259766 192.41357422 C-262.55241595 182.91237194 -261.95842905 173.41031438 -261.39453125 163.90625 C-261.34923782 163.14533051 -261.3039444 162.38441101 -261.25727844 161.60043335 C-261.0495335 158.10185064 -260.84503597 154.60313438 -260.64672852 151.10400391 C-260.33544842 145.76707346 -259.98028511 140.49555759 -259.25 135.19677734 C-258.68783069 130.25693415 -258.47497496 125.28163941 -258.18405151 120.31982422 C-257.97498315 116.75973059 -257.7571634 113.20017508 -257.5390625 109.640625 C-257.47273872 108.55581848 -257.47273872 108.55581848 -257.40507507 107.44909668 C-256.89198513 99.13121002 -256.29004095 90.81996959 -255.68212891 82.50854492 C-255.13557088 75.01000884 -254.64990284 67.51145898 -254.24609375 60.00390625 C-254.02142805 57.2615583 -253.60634422 54.68094345 -253 52 C-252.34 52 -251.68 52 -251 52 C-248.89520098 58.43493622 -248.07720293 64.92840086 -247.1875 71.625 C-245.86293507 81.2444734 -244.3895931 90.81528958 -242.6875 100.375 C-240.41500162 113.19883087 -238.43656954 126.05911073 -236.5 138.9375 C-234.50439161 152.20307464 -232.48044085 165.45918385 -230.25 178.6875 C-230.04995361 179.87400146 -229.84990723 181.06050293 -229.64379883 182.28295898 C-229.26968149 184.49649973 -228.89511669 186.70996492 -228.52001953 188.92333984 C-227.72734313 193.61315581 -226.94829355 198.30490906 -226.1875 203 C-226.0013916 204.11314575 -226.0013916 204.11314575 -225.81152344 205.2487793 C-225.17663929 209.20650477 -224.88103396 212.99272291 -225 217 C-224.34 217 -223.68 217 -223 217 C-222.77054688 216.4328125 -222.54109375 215.865625 -222.3046875 215.28125 C-220.6487909 212.38590985 -218.64226333 210.69636574 -216.125 208.5 C-208.98828192 202.17587853 -202.34215454 195.37238202 -195.68017578 188.5546875 C-194.84470215 187.70777344 -194.00922852 186.86085938 -193.1484375 185.98828125 C-192.02187744 184.83646362 -192.02187744 184.83646362 -190.87255859 183.66137695 C-189 182 -189 182 -187 182 C-186.67 181.01 -186.34 180.02 -186 179 C-184.52148437 177.54492187 -184.52148437 177.54492187 -182.59375 175.96875 C-177.25958471 171.44279158 -172.40826415 166.47868401 -167.5 161.5 C-165.70042547 159.67460661 -163.89838231 157.85164329 -162.09375 156.03125 C-160.91329102 154.83338867 -160.91329102 154.83338867 -159.70898438 153.61132812 C-157.56269079 151.54240634 -155.39047633 149.58362223 -153.13671875 147.63671875 C-149.15473016 144.180684 -145.42052262 140.53324093 -141.71875 136.78125 C-141.06096558 136.11967896 -140.40318115 135.45810791 -139.72546387 134.77648926 C-137.64782726 132.68677265 -135.57349373 130.59382685 -133.5 128.5 C-130.7634185 125.736583 -128.02337737 122.97666278 -125.28125 120.21875 C-124.66954956 119.59875122 -124.05784912 118.97875244 -123.4276123 118.33996582 C-119.68396248 114.57550525 -115.80613139 111.0360737 -111.78863525 107.56600952 C-109.69581442 105.73367543 -107.72720944 103.81110995 -105.7890625 101.81640625 C-105.10199219 101.11708984 -104.41492188 100.41777344 -103.70703125 99.69726562 C-102.2939162 98.24835873 -100.88251394 96.79777978 -99.47265625 95.34570312 C-98.45365234 94.31026367 -98.45365234 94.31026367 -97.4140625 93.25390625 C-96.8051416 92.62814697 -96.1962207 92.0023877 -95.56884766 91.35766602 C-94 90 -94 90 -92 90 C-91.731875 89.360625 -91.46375 88.72125 -91.1875 88.0625 C-90 86 -90 86 -87 85 C-86.67 84.01 -86.34 83.02 -86 82 C-85.34 82 -84.68 82 -84 82 C-83.67 81.01 -83.34 80.02 -83 79 C-81.44677734 77.47241211 -81.44677734 77.47241211 -79.4609375 75.83984375 C-74.13651648 71.3244211 -69.33209363 66.35065904 -64.47265625 61.34570312 C-63.45365234 60.31026367 -63.45365234 60.31026367 -62.4140625 59.25390625 C-61.8051416 58.62814697 -61.1962207 58.0023877 -60.56884766 57.35766602 C-59 56 -59 56 -57 56 C-56.67 55.01 -56.34 54.02 -56 53 C-55.34 53 -54.68 53 -54 53 C-54 52.34 -54 51.68 -54 51 C-52.61474609 49.64038086 -52.61474609 49.64038086 -50.6484375 48.02734375 C-44.34407172 42.66904961 -38.67185624 36.68127774 -32.89453125 30.76757812 C-31.60482422 29.46143555 -31.60482422 29.46143555 -30.2890625 28.12890625 C-29.51256348 27.33556885 -28.73606445 26.54223145 -27.93603516 25.72485352 C-26 24 -26 24 -24 24 C-24 23.34 -24 22.68 -24 22 C-22.70703125 20.73046875 -22.70703125 20.73046875 -20.8125 19.1875 C-16.09698333 15.19874755 -11.79719523 10.85471535 -7.48168945 6.4440918 C-5.08278985 4.00845781 -2.85471033 1.90314022 0 0 Z " fill="#3483EB" transform="translate(886,72)"/>
<path d="M0 0 C0.33 0.99 0.66 1.98 1 3 C-0.64558272 5.52485512 -2.32460802 7.83040581 -4.1875 10.1875 C-5.29457039 11.62346702 -6.401332 13.05967214 -7.5078125 14.49609375 C-8.37067871 15.60573486 -8.37067871 15.60573486 -9.25097656 16.73779297 C-12.06425169 20.37651537 -14.81091872 24.06454871 -17.5625 27.75 C-18.54264006 29.05753812 -19.5230885 30.36484516 -20.50390625 31.671875 C-20.91455322 32.2194043 -21.3252002 32.76693359 -21.74829102 33.33105469 C-23.16552734 35.22070312 -24.58276367 37.11035156 -26 39 C-13.21738375 40.94959436 -0.36747423 41.98714576 12.51300049 43.05859375 C19.02372001 43.60077894 25.53335507 44.1556547 32.04296875 44.7109375 C33.3381543 44.82129333 34.63333984 44.93164917 35.96777344 45.04534912 C46.69354904 45.96378033 57.41064082 46.95763431 68.125 48 C87.58141625 49.89174201 107.05085764 51.62661607 126.52392578 53.33789062 C127.69125244 53.44100052 128.8585791 53.54411041 130.0612793 53.65034485 C132.24997085 53.84364756 134.43876671 54.03577445 136.62768555 54.22648621 C142.10316016 54.71082115 147.5506298 55.27793612 153 56 C153.33 56.99 153.66 57.98 154 59 C151.74835033 60.12582484 150.05124239 60.3288709 147.55273438 60.62915039 C146.61664841 60.74371582 145.68056244 60.85828125 144.71611023 60.97631836 C143.17054192 61.16013062 143.17054192 61.16013062 141.59375 61.34765625 C139.3493518 61.62171616 137.10496771 61.89589167 134.8605957 62.17016602 C133.66375153 62.31511505 132.46690735 62.46006409 131.23379517 62.60940552 C109.56585272 65.23880127 87.93060492 68.04933778 66.3125 71.0625 C65.11278564 71.2295343 63.91307129 71.3965686 62.67700195 71.56866455 C57.90735682 72.23277709 53.13772694 72.89699821 48.36819458 73.56192017 C37.39192295 75.08987552 26.41067238 76.57944809 15.42611694 78.04660034 C13.5053129 78.30320035 11.58459452 78.56044257 9.66397095 78.81838989 C0.78647852 80.01007336 -8.07695546 81.19803215 -17 82 C-17.33 81.34 -17.66 80.68 -18 80 C21.15379771 73.55869582 21.15379771 73.55869582 37.546875 72.32421875 C40.85402062 72.2236747 40.85402062 72.2236747 43 71 C44.39915591 70.76896345 45.80598838 70.58355898 47.21484375 70.421875 C48.10929199 70.31568848 49.00374023 70.20950195 49.92529297 70.10009766 C50.91932129 69.98456543 51.91334961 69.8690332 52.9375 69.75 C62.3844889 68.61532589 71.80101836 67.32384356 81.2142334 65.94186401 C102.09349477 62.88004024 123.03702251 60.41158763 144 58 C143.02172241 57.94839722 143.02172241 57.94839722 142.02368164 57.89575195 C119.22042197 56.64175737 96.55977416 54.29234607 73.85151672 51.91334534 C63.40952099 50.82431119 52.95849217 49.84393376 42.50244141 48.90063477 C33.59930028 48.0898634 33.59930028 48.0898634 29.30078125 47.4453125 C24.80900566 46.83932147 20.33941778 46.76010843 15.8125 46.625 C6.45402788 46.28653808 -2.81589672 45.51139825 -12.125 44.5 C-13.32793701 44.36932129 -14.53087402 44.23864258 -15.77026367 44.10400391 C-20.56286721 43.56492568 -25.27976243 43.005086 -30 42 C-29.39996592 38.89073252 -28.4554654 36.97692284 -26.5 34.5 C-25.95472656 33.79746094 -25.40945313 33.09492188 -24.84765625 32.37109375 C-24.23792969 31.58863281 -23.62820313 30.80617188 -23 30 C-21.64293462 28.18966932 -20.28902133 26.37697339 -18.9375 24.5625 C-14.98478349 19.29221133 -10.99881799 14.04788483 -7 8.8125 C-6.4237085 8.05718994 -5.84741699 7.30187988 -5.25366211 6.52368164 C-4.71620361 5.82106201 -4.17874512 5.11844238 -3.625 4.39453125 C-2.90183594 3.44864136 -2.90183594 3.44864136 -2.1640625 2.48364258 C-1 1 -1 1 0 0 Z " fill="#2A72DA" transform="translate(720,292)"/>
<path d="M0 0 C2.4375 1.125 2.4375 1.125 5 3 C5.66015625 6.1171875 5.66015625 6.1171875 6 9 C2.2935383 9.49434991 -1.41541138 9.96723965 -5.125 10.4375 C-6.13304687 10.57220703 -7.14109375 10.70691406 -8.1796875 10.84570312 C-15.23086585 11.72710042 -22.20751115 12.17061202 -29.3046875 12.4375 C-37.34444719 12.7489557 -45.31156441 13.34306144 -53.3125 14.19140625 C-54.35227997 14.30153549 -55.39205994 14.41166473 -56.46334839 14.52513123 C-60.70546193 14.98033631 -64.94646524 15.44473206 -69.18652344 15.91870117 C-83.85965999 17.54617141 -98.2358442 18.32163721 -113 18 C-113 18.66 -113 19.32 -113 20 C-128.38906048 21.94671529 -143.47897944 23.51043551 -159 23 C-159 23.66 -159 24.32 -159 25 C-157.37553955 25.04846069 -157.37553955 25.04846069 -155.71826172 25.09790039 C-142.03526619 25.60848533 -128.65608088 27.41583836 -115.125 29.4375 C-112.96105167 29.75403672 -110.79698938 30.06979535 -108.6328125 30.38476562 C-98.41487431 31.87677583 -88.20219664 33.40364454 -78 35 C-81.73970973 37.49313982 -83.96188696 36.92798596 -88.171875 36.3125 C-88.90639893 36.21491394 -89.64092285 36.11732788 -90.39770508 36.01678467 C-92.85005837 35.68862868 -95.29985496 35.34422551 -97.75 35 C-99.46630272 34.76730746 -101.18277826 34.5358865 -102.89941406 34.30566406 C-105.64123332 33.93764598 -108.38287156 33.56853853 -111.1239624 33.19512939 C-118.38985855 32.20648527 -125.66173576 31.27235569 -132.9375 30.359375 C-134.00760315 30.22478882 -135.0777063 30.09020264 -136.18023682 29.95153809 C-140.42301393 29.41820452 -144.6658538 28.88539783 -148.90905762 28.35546875 C-151.87203393 27.98464313 -154.83449634 27.60994086 -157.796875 27.234375 C-158.68576416 27.12414001 -159.57465332 27.01390503 -160.49047852 26.90032959 C-161.30669678 26.79625793 -162.12291504 26.69218628 -162.96386719 26.58496094 C-164.02985138 26.45102936 -164.02985138 26.45102936 -165.11737061 26.31439209 C-167 26 -167 26 -170 25 C-170 24.01 -170 23.02 -170 22 C-145.28022238 19.58082 -120.56028915 17.1788487 -95.8125 15.0625 C-78.48411478 13.57520096 -61.15894423 12.05324163 -43.83829403 10.47838688 C-40.16765326 10.14464483 -36.49686946 9.81278588 -32.82559204 9.4861145 C-28.70993126 9.11977302 -24.59519467 8.74388508 -20.48046875 8.3671875 C-18.63659073 8.20486382 -18.63659073 8.20486382 -16.75546265 8.03926086 C-10.34819532 7.44394925 -4.24474499 6.56149888 2 5 C1.01 2.525 1.01 2.525 0 0 Z " fill="#246DDA" transform="translate(583,326)"/>
<path d="M0 0 C3.3 0.33 6.6 0.66 10 1 C10.33 1.99 10.66 2.98 11 4 C8.74835033 5.12582484 7.05124239 5.3288709 4.55273438 5.62915039 C3.61664841 5.74371582 2.68056244 5.85828125 1.71611023 5.97631836 C0.68573135 6.09885986 -0.34464752 6.22140137 -1.40625 6.34765625 C-3.6506482 6.62171616 -5.89503229 6.89589167 -8.1394043 7.17016602 C-9.33624847 7.31511505 -10.53309265 7.46006409 -11.76620483 7.60940552 C-33.43414728 10.23880127 -55.06939508 13.04933778 -76.6875 16.0625 C-77.88721436 16.2295343 -79.08692871 16.3965686 -80.32299805 16.56866455 C-85.09264318 17.23277709 -89.86227306 17.89699821 -94.63180542 18.56192017 C-105.60807705 20.08987552 -116.58932762 21.57944809 -127.57388306 23.04660034 C-129.4946871 23.30320035 -131.41540548 23.56044257 -133.33602905 23.81838989 C-142.21352148 25.01007336 -151.07695546 26.19803215 -160 27 C-160.33 26.34 -160.66 25.68 -161 25 C-121.84620229 18.55869582 -121.84620229 18.55869582 -105.453125 17.32421875 C-102.14597938 17.2236747 -102.14597938 17.2236747 -100 16 C-98.60084409 15.76896345 -97.19401162 15.58355898 -95.78515625 15.421875 C-94.89070801 15.31568848 -93.99625977 15.20950195 -93.07470703 15.10009766 C-92.08067871 14.98456543 -91.08665039 14.8690332 -90.0625 14.75 C-80.6155111 13.61532589 -71.19898164 12.32384356 -61.7857666 10.94186401 C-40.90650523 7.88004024 -19.96297749 5.41158763 1 3 C0.67 2.01 0.34 1.02 0 0 Z " fill="#246CD8" transform="translate(863,347)"/>
<path d="M0 0 C0.495 1.485 0.495 1.485 1 3 C-0.35523287 5.25973661 -1.73283609 7.28038963 -3.3125 9.375 C-3.76093262 9.98553223 -4.20936523 10.59606445 -4.67138672 11.22509766 C-9.34766995 17.55834446 -14.15547763 23.79488837 -19 30 C-19.99 29.67 -20.98 29.34 -22 29 C-20.7260411 26.96166576 -19.38938077 24.96147874 -18 23 C-17.34 23 -16.68 23 -16 23 C-16.495 22.01 -16.495 22.01 -17 21 C-17.43570313 21.55429688 -17.87140625 22.10859375 -18.3203125 22.6796875 C-21.994499 27.14915246 -24.31290884 29.41290479 -30 31 C-30.38285156 31.82951172 -30.38285156 31.82951172 -30.7734375 32.67578125 C-32.60161384 36.14000076 -35.40887577 38.35614261 -38.3125 40.9375 C-39.45533531 41.96644006 -40.59727433 42.99637654 -41.73828125 44.02734375 C-42.56453003 44.77310669 -42.56453003 44.77310669 -43.4074707 45.53393555 C-46.28294354 48.18106331 -49.0248202 50.95258466 -51.6875 53.8125 C-53 55 -53 55 -55 55 C-54.43779974 51.45679752 -53.36061674 50.11893011 -50.5859375 47.90234375 C-44.26766975 42.62302365 -38.64308423 36.65182656 -32.89453125 30.76757812 C-32.03472656 29.89681641 -31.17492187 29.02605469 -30.2890625 28.12890625 C-29.51256348 27.33556885 -28.73606445 26.54223145 -27.93603516 25.72485352 C-26 24 -26 24 -24 24 C-24 23.34 -24 22.68 -24 22 C-22.70703125 20.73046875 -22.70703125 20.73046875 -20.8125 19.1875 C-16.09698333 15.19874755 -11.79719523 10.85471535 -7.48168945 6.4440918 C-5.08278985 4.00845781 -2.85471033 1.90314022 0 0 Z " fill="#3685DE" transform="translate(886,72)"/>
<path d="M0 0 C5.19312147 0.45391728 7.81651893 2.02877768 11.8125 5.3125 C12.95843762 6.23228989 14.10700741 7.14880742 15.2578125 8.0625 C16.16708496 8.78566406 16.16708496 8.78566406 17.09472656 9.5234375 C20.37780614 12.0677821 23.78205233 14.43586715 27.1875 16.8125 C33.28292643 21.08047616 39.34610169 25.38845406 45.375 29.75 C46.13611084 30.30059082 46.89722168 30.85118164 47.68139648 31.41845703 C51.70904636 34.33492477 55.7312016 37.25884486 59.75 40.1875 C65.02239959 44.02788983 70.32946515 47.81898073 75.640625 51.60546875 C76.18396484 51.99524902 76.72730469 52.3850293 77.28710938 52.78662109 C78.50833197 53.65171179 79.74004668 54.50207017 80.97851562 55.34228516 C82.6859984 56.51392723 84.34738958 57.7521533 86 59 C86 59.66 86 60.32 86 61 C82.40237785 59.6929274 79.52841047 58.12388579 76.4375 55.875 C71.58658411 52.39863149 66.64555491 49.08281986 61.6640625 45.796875 C56.78607824 42.50673899 56.78607824 42.50673899 55 41 C55 40.34 55 39.68 55 39 C54.484375 38.7525 53.96875 38.505 53.4375 38.25 C46.08134693 34.47761381 39.63949549 29.91251082 33 25 C31.12581721 23.64470253 29.25083098 22.29051534 27.375 20.9375 C21.58082571 16.72430755 15.87932907 12.39944089 10.375 7.8125 C8.36451592 6.2781832 6.45277241 5.09232159 4.25 3.875 C1 2 1 2 0 0 Z " fill="#337CDB" transform="translate(525,233)"/>
<path d="M0 0 C0.33 0.99 0.66 1.98 1 3 C-0.64558272 5.52485512 -2.32460802 7.83040581 -4.1875 10.1875 C-5.29457039 11.62346702 -6.401332 13.05967214 -7.5078125 14.49609375 C-8.37067871 15.60573486 -8.37067871 15.60573486 -9.25097656 16.73779297 C-12.06425169 20.37651537 -14.81091872 24.06454871 -17.5625 27.75 C-18.54264006 29.05753812 -19.5230885 30.36484516 -20.50390625 31.671875 C-20.91455322 32.2194043 -21.3252002 32.76693359 -21.74829102 33.33105469 C-23.16552734 35.22070312 -24.58276367 37.11035156 -26 39 C-13.13 40.485 -13.13 40.485 0 42 C0 42.66 0 43.32 0 44 C3.63 44.33 7.26 44.66 11 45 C11 45.33 11 45.66 11 46 C-2.75577225 45.40548823 -16.34800167 43.73589405 -30 42 C-29.29271619 38.89883253 -28.47960189 37.00749573 -26.5 34.5 C-25.95472656 33.79746094 -25.40945313 33.09492188 -24.84765625 32.37109375 C-24.23792969 31.58863281 -23.62820313 30.80617188 -23 30 C-21.64293462 28.18966932 -20.28902133 26.37697339 -18.9375 24.5625 C-14.98478349 19.29221133 -10.99881799 14.04788483 -7 8.8125 C-6.4237085 8.05718994 -5.84741699 7.30187988 -5.25366211 6.52368164 C-4.71620361 5.82106201 -4.17874512 5.11844238 -3.625 4.39453125 C-2.90183594 3.44864136 -2.90183594 3.44864136 -2.1640625 2.48364258 C-1 1 -1 1 0 0 Z " fill="#317ADB" transform="translate(720,292)"/>
<path d="M0 0 C1.62228516 0.27263672 1.62228516 0.27263672 3.27734375 0.55078125 C12.14408424 2.01135913 21.01027193 3.28353777 29.9375 4.3125 C41.40312518 5.64732087 52.84816411 7.12583972 64.28884888 8.65878296 C66.29914313 8.92719688 68.30978511 9.19301966 70.32077026 9.45620728 C73.16926602 9.82964863 76.01635473 10.21245715 78.86328125 10.59765625 C79.72577484 10.70905945 80.58826843 10.82046265 81.47689819 10.9352417 C82.27769806 11.04563782 83.07849792 11.15603394 83.90356445 11.26977539 C84.60093216 11.36287491 85.29829987 11.45597443 86.01679993 11.55189514 C88.23557807 12.05322896 90.01062591 12.91134713 92 14 C88.53808876 14.8308309 85.79298919 15.04099475 82.27441406 14.53442383 C81.35915955 14.40698288 80.44390503 14.27954193 79.50091553 14.14823914 C78.51576965 14.00264053 77.53062378 13.85704193 76.515625 13.70703125 C74.96032074 13.48784782 74.96032074 13.48784782 73.37359619 13.26423645 C69.99800674 12.78747097 66.62407601 12.29984932 63.25 11.8125 C58.6204076 11.15575715 53.98995753 10.50518943 49.359375 9.85546875 C48.21355957 9.69405396 47.06774414 9.53263916 45.88720703 9.36633301 C34.74647652 7.80537145 23.58699448 6.43745066 12.41113281 5.15551758 C11.19264648 5.0139624 9.97416016 4.87240723 8.71875 4.7265625 C7.67654297 4.60877441 6.63433594 4.49098633 5.56054688 4.36962891 C3 4 3 4 0 3 C0 2.01 0 1.02 0 0 Z " fill="#1E67D7" transform="translate(413,348)"/>
<path d="M0 0 C15.52571848 0.40954185 30.76358625 2.58092964 46.12255859 4.77716064 C49.50150423 5.25864598 52.88166516 5.73144502 56.26171875 6.20507812 C62.84226546 7.12891536 69.42158809 8.06108831 76 9 C76.495 11.475 76.495 11.475 77 14 C76.360625 14.2475 75.72125 14.495 75.0625 14.75 C72.80364886 15.78813195 72.80364886 15.78813195 72.5 18 C72 20 72 20 70.0625 21.3125 C69.381875 21.539375 68.70125 21.76625 68 22 C67.34 21.67 66.68 21.34 66 21 C69.96 16.545 69.96 16.545 74 12 C61.12329167 9.72746677 48.23522217 7.95903711 35.25 6.4375 C28.49824179 5.63913768 21.74810947 4.82863706 15 4 C14.26547607 3.91147766 13.53095215 3.82295532 12.77416992 3.73175049 C10.78051539 3.48854208 8.78861465 3.23107817 6.796875 2.97265625 C5.69182617 2.832229 4.58677734 2.69180176 3.44824219 2.54711914 C2.2363623 2.27629517 2.2363623 2.27629517 1 2 C0.67 1.34 0.34 0.68 0 0 Z " fill="#256ED8" transform="translate(506,362)"/>
<path d="M0 0 C0.33 0 0.66 0 1 0 C1 1.98 1 3.96 1 6 C1.66 6 2.32 6 3 6 C3.4024206 8.47524794 3.80475007 10.95051065 4.20703125 13.42578125 C4.39483154 14.58096001 4.39483154 14.58096001 4.58642578 15.75947571 C5.27496345 19.9966776 5.96169955 24.2341607 6.64526367 28.47216797 C6.91970894 30.17285966 7.19420393 31.87354333 7.46875 33.57421875 C7.60352249 34.40908813 7.73829498 35.24395752 7.87715149 36.10412598 C8.57464405 40.41299769 9.28687722 44.71845229 10.03125 49.01953125 C11.85348962 59.67113496 12.64927459 70.20007606 13 81 C11.46243962 78.19835522 10.64753656 75.80739737 10.17578125 72.65234375 C10.0375293 71.75773437 9.89927734 70.863125 9.75683594 69.94140625 C9.53688965 68.45447266 9.53688965 68.45447266 9.3125 66.9375 C8.97147288 64.70681358 8.6288963 62.47636373 8.28515625 60.24609375 C8.08937988 58.97233887 7.89360352 57.69858398 7.69189453 56.38623047 C6.89550836 51.28341604 6.03781485 46.19104757 5.18359375 41.09765625 C4.70025863 38.19815179 4.21744627 35.29856063 3.73471069 32.3989563 C3.41328854 30.47659562 3.08960254 28.554612 2.76358032 26.63302612 C2.29919824 23.89184434 1.84406582 21.14925999 1.390625 18.40625 C1.25019272 17.59136612 1.10976044 16.77648224 0.96507263 15.93690491 C0.0872854 10.55916981 -0.12107365 5.44967455 0 0 Z " fill="#3B86DB" transform="translate(643,183)"/>
<path d="M0 0 C2.46800047 1.15173355 4.04783565 2.04783565 6 4 C6.7425 4.268125 7.485 4.53625 8.25 4.8125 C11.73127919 6.31577965 14.12496871 8.5442441 17 11 C17.77730469 11.4640625 18.55460938 11.928125 19.35546875 12.40625 C22.18725451 14.11285057 24.72210898 16.00937526 27.3125 18.0625 C28.19550781 18.75472656 29.07851563 19.44695312 29.98828125 20.16015625 C30.65214844 20.76730469 31.31601562 21.37445313 32 22 C32 22.66 32 23.32 32 24 C32.94875 24.309375 33.8975 24.61875 34.875 24.9375 C38 26 38 26 40 27 C40.33 26.34 40.66 25.68 41 25 C41 25.99 41 26.98 41 28 C41.556875 28.226875 42.11375 28.45375 42.6875 28.6875 C45.63246684 30.35896766 47.68156544 32.55276352 50 35 C49.505 35.99 49.505 35.99 49 37 C45.3014857 35.32537004 42.09156645 33.05199689 38.8125 30.6875 C38.20664062 30.25308594 37.60078125 29.81867188 36.9765625 29.37109375 C31.34985269 25.30799296 25.8474253 21.08779085 20.35693359 16.84326172 C15.0523125 12.7570894 9.6481636 8.83924738 4.11328125 5.0703125 C2.70787823 4.0945232 1.34823157 3.05337269 0 2 C0 1.34 0 0.68 0 0 Z " fill="#3B81D9" transform="translate(736,458)"/>
<path d="M0 0 C0.66 0.66 1.32 1.32 2 2 C0.37660195 3.70884005 -1.29319053 5.37446717 -3 7 C-3.66 7 -4.32 7 -5 7 C-5 7.66 -5 8.32 -5 9 C-6.2578125 10.3046875 -6.2578125 10.3046875 -8.125 11.875 C-8.84558594 12.48859375 -9.56617188 13.1021875 -10.30859375 13.734375 C-11.19675781 14.48203125 -12.08492187 15.2296875 -13 16 C-14.77752533 17.50920983 -16.55251112 19.02132253 -18.32568359 20.53564453 C-19.54391532 21.57559844 -20.76421593 22.61313487 -21.98681641 23.64794922 C-24.70631998 25.96383003 -27.32479627 28.29056747 -29.80078125 30.8671875 C-32 33 -32 33 -34 33 C-34 33.66 -34 34.32 -34 35 C-35.42578125 36.54296875 -35.42578125 36.54296875 -37.3125 38.1875 C-37.92738281 38.73792969 -38.54226563 39.28835938 -39.17578125 39.85546875 C-39.77777344 40.23316406 -40.37976563 40.61085938 -41 41 C-41.99 40.67 -42.98 40.34 -44 40 C-42.71034824 38.62437146 -41.37310707 37.29233607 -40 36 C-39.34 36 -38.68 36 -38 36 C-37.7628125 35.42636719 -37.525625 34.85273438 -37.28125 34.26171875 C-35.72059331 31.50677904 -33.88950019 29.88818925 -31.5 27.8125 C-30.60539063 27.02746094 -29.71078125 26.24242187 -28.7890625 25.43359375 C-27.86867188 24.63050781 -26.94828125 23.82742188 -26 23 C-24.28908244 21.46120177 -22.58067225 19.91961032 -20.875 18.375 C-16.6175271 14.54327439 -12.32013711 10.76075681 -8 7 C-6.49968066 5.68786505 -4.99967399 4.37537249 -3.5 3.0625 C-2.33333333 2.04166667 -1.16666667 1.02083333 0 0 Z " fill="#357ED7" transform="translate(554,460)"/>
<path d="M0 0 C4.94960059 0.43672946 7.34151544 2.79882601 11 6 C13.51845284 7.59706765 16.08385281 9.04680157 18.6875 10.5 C21 12 21 12 23 15 C24.64551962 15.71727778 26.31422289 16.38325228 28 17 C28.99 17.66 29.98 18.32 31 19 C31 19.66 31 20.32 31 21 C31.5775 21.2475 32.155 21.495 32.75 21.75 C35 23 35 23 36.6875 24.8125 C40.02689014 27.97138256 43.94425976 29.88546877 48 32 C48 32.99 48 33.98 48 35 C38.52551756 30.50650945 30.15827558 23.20127139 21.77709961 16.97558594 C18.37620492 14.45527074 14.99790364 11.96620291 11.421875 9.69921875 C10.62265625 9.13847656 9.8234375 8.57773437 9 8 C9 7.34 9 6.68 9 6 C8.2575 5.7525 7.515 5.505 6.75 5.25 C3.79875938 3.90852699 2.15185026 2.39094474 0 0 Z " fill="#2F75DB" transform="translate(676,415)"/>
<path d="M0 0 C2.4375 1.125 2.4375 1.125 5 3 C5.66015625 6.1171875 5.66015625 6.1171875 6 9 C-8.05099297 10.91073177 -21.80768656 12.52708729 -36 12 C-36 11.67 -36 11.34 -36 11 C-33.36 11 -30.72 11 -28 11 C-28 10.34 -28 9.68 -28 9 C-27.16227051 8.91435791 -26.32454102 8.82871582 -25.46142578 8.74047852 C-22.35627571 8.42116681 -19.25151363 8.09836955 -16.14697266 7.77319336 C-14.80271698 7.63311939 -13.45831527 7.49443957 -12.11376953 7.35717773 C-10.18223947 7.15974828 -8.25126531 6.95690385 -6.3203125 6.75390625 C-5.15773926 6.63345947 -3.99516602 6.5130127 -2.79736328 6.38891602 C-0.05188961 6.15918898 -0.05188961 6.15918898 2 5 C1.34 3.35 0.68 1.7 0 0 Z " fill="#2D74DB" transform="translate(583,326)"/>
<path d="M0 0 C0.99 0.33 1.98 0.66 3 1 C1.71937515 2.7074998 0.38232443 4.37373596 -1 6 C-1.66 6 -2.32 6 -3 6 C-3 6.66 -3 7.32 -3 8 C-4.49609375 9.4375 -4.49609375 9.4375 -6.4375 11 C-9.15188238 13.14525044 -9.15188238 13.14525044 -11 16 C-11.66 16 -12.32 16 -13 16 C-13 16.66 -13 17.32 -13 18 C-13.928125 18.12375 -13.928125 18.12375 -14.875 18.25 C-17.18437567 18.81258459 -17.18437567 18.81258459 -18.25 21.0625 C-18.62125 22.0215625 -18.62125 22.0215625 -19 23 C-19.66 23 -20.32 23 -21 23 C-21.268125 23.598125 -21.53625 24.19625 -21.8125 24.8125 C-23.00987475 27.01819033 -24.04478984 28.43583187 -26 30 C-26.99 30 -27.98 30 -29 30 C-29.33 27.03 -29.66 24.06 -30 21 C-29.34 21 -28.68 21 -28 21 C-28 22.98 -28 24.96 -28 27 C-27.34 27 -26.68 27 -26 27 C-25.78085937 26.443125 -25.56171875 25.88625 -25.3359375 25.3125 C-23.56099571 22.24008615 -21.28539225 20.34617269 -18.625 18 C-12.17109697 12.23616814 -6.06841185 6.16524821 0 0 Z " fill="#327CDA" transform="translate(689,262)"/>
<path d="M0 0 C5.19312147 0.45391728 7.81651893 2.02877768 11.8125 5.3125 C12.9388 6.21809477 14.06785703 7.12026809 15.19921875 8.01953125 C16.10486572 8.74003662 16.10486572 8.74003662 17.02880859 9.47509766 C20.64146166 12.26982531 24.38504205 14.87951779 28.125 17.5 C28.85952393 18.01602783 29.59404785 18.53205566 30.35083008 19.0637207 C33.21648777 21.07158507 36.08839131 23.05892754 39 25 C38.505 26.485 38.505 26.485 38 28 C36.26847042 26.92044741 34.53988316 25.83617488 32.8125 24.75 C31.84957031 24.14671875 30.88664063 23.5434375 29.89453125 22.921875 C27.12074457 21.08017048 24.57225293 19.11099271 22 17 C19.71572962 15.21639162 17.42472522 13.44174278 15.1328125 11.66796875 C13.52485932 10.4104669 11.94315479 9.11929566 10.375 7.8125 C8.36451592 6.2781832 6.45277241 5.09232159 4.25 3.875 C1 2 1 2 0 0 Z " fill="#3B82DB" transform="translate(525,233)"/>
<path d="M0 0 C3.81927758 1.27309253 4.2228928 2.58991312 6.25 6 C9.51642206 11.30707986 13.08245236 16.16166125 17 21 C29 35.84210526 29 35.84210526 29 39 C25.93256193 37.66976691 24.23315358 36.38480129 22.265625 33.69140625 C21.77779541 33.03197021 21.28996582 32.37253418 20.78735352 31.69311523 C20.28002686 30.99001221 19.7727002 30.28690918 19.25 29.5625 C18.72140381 28.84328369 18.19280762 28.12406738 17.64819336 27.38305664 C16.09107724 25.26087906 14.54476817 23.13117468 13 21 C12.20511235 19.91356079 11.40961557 18.82756678 10.61328125 17.7421875 C9.29983354 15.94589139 7.99199939 14.14546888 6.69140625 12.33984375 C5.60909856 10.84260978 4.51385971 9.35458636 3.40234375 7.87890625 C0 3.32033426 0 3.32033426 0 0 Z " fill="#327EDB" transform="translate(554,286)"/>
<path d="M0 0 C0 3 0 3 -1.8125 4.875 C-2.8953125 5.926875 -2.8953125 5.926875 -4 7 C-4.495 7.825 -4.99 8.65 -5.5 9.5 C-7.06636161 12.11060268 -8.85622579 13.85622579 -11 16 C-11.41894531 16.75667969 -11.83789062 17.51335937 -12.26953125 18.29296875 C-14.35221848 21.55098738 -16.79181435 23.75748325 -19.6875 26.3125 C-20.45416992 26.9940918 -20.45416992 26.9940918 -21.23632812 27.68945312 C-22.48576335 28.79876478 -23.74217823 29.90020678 -25 31 C-25 26.87050721 -23.27386061 25.6084421 -20.625 22.5 C-18.26397983 19.71174761 -16.02744435 17.04116653 -14 14 C-13.34 14 -12.68 14 -12 14 C-11.7525 13.43667969 -11.505 12.87335938 -11.25 12.29296875 C-9.79087285 9.61638239 -8.03712424 7.57805177 -6 5.3125 C-5.29875 4.52488281 -4.5975 3.73726563 -3.875 2.92578125 C-2 1 -2 1 0 0 Z " fill="#317BDC" transform="translate(574,383)"/>
<path d="M0 0 C0.33 0.99 0.66 1.98 1 3 C-0.50160783 5.4859295 -2.02292807 7.74322171 -3.75 10.0625 C-4.20632813 10.69994141 -4.66265625 11.33738281 -5.1328125 11.99414062 C-7.31993236 14.99352898 -8.85304243 16.90202829 -12 19 C-12.33 18.01 -12.66 17.02 -13 16 C-14.98 17.65 -16.96 19.3 -19 21 C-19 18 -19 18 -17.57885742 16.22241211 C-16.92763916 15.58053955 -16.2764209 14.93866699 -15.60546875 14.27734375 C-14.89712891 13.57416016 -14.18878906 12.87097656 -13.45898438 12.14648438 C-12.33459961 11.05303711 -12.33459961 11.05303711 -11.1875 9.9375 C-10.44951172 9.20466797 -9.71152344 8.47183594 -8.95117188 7.71679688 C-6.0546642 4.86222958 -3.39283915 2.26189276 0 0 Z " fill="#3377D2" transform="translate(886,72)"/>
<path d="M0 0 C6.43621948 2.97973124 12.52753798 6.44709102 18 11 C18 11.66 18 12.32 18 13 C17.2575 12.690625 16.515 12.38125 15.75 12.0625 C13.4876042 11.18839253 11.35025921 10.55743327 9 10 C9.5053125 10.69867188 10.010625 11.39734375 10.53125 12.1171875 C11.1809375 13.02726563 11.830625 13.93734375 12.5 14.875 C13.1496875 15.77992188 13.799375 16.68484375 14.46875 17.6171875 C16 20 16 20 16 22 C15.34 22 14.68 22 14 22 C12.66796875 20.49609375 12.66796875 20.49609375 11.1875 18.4375 C10.66285156 17.71175781 10.13820313 16.98601562 9.59765625 16.23828125 C9.07042969 15.49964844 8.54320312 14.76101562 8 14 C7.50371094 13.33355469 7.00742187 12.66710937 6.49609375 11.98046875 C3 7.24928775 3 7.24928775 3 5 C2.34 5 1.68 5 1 5 C0.67 3.35 0.34 1.7 0 0 Z " fill="#2F75CE" transform="translate(499,213)"/>
<path d="M0 0 C0.66 0.33 1.32 0.66 2 1 C1.50628906 1.40992188 1.01257813 1.81984375 0.50390625 2.2421875 C-0.45708984 3.05042969 -0.45708984 3.05042969 -1.4375 3.875 C-2.07558594 4.40867188 -2.71367188 4.94234375 -3.37109375 5.4921875 C-5.10805004 6.9222757 -5.10805004 6.9222757 -6 9 C-6.66 9 -7.32 9 -8 9 C-8 9.66 -8 10.32 -8 11 C-9.57421875 12.55078125 -9.57421875 12.55078125 -11.6875 14.3125 C-14.19802294 16.43644684 -16.60823421 18.55501344 -18.875 20.9375 C-21 23 -21 23 -23 23 C-23.2475 23.5775 -23.495 24.155 -23.75 24.75 C-25.16683317 27.3002997 -26.87627537 29.01785701 -29 31 C-29.66 30.67 -30.32 30.34 -31 30 C-25.39932918 23.36906183 -19.38296768 17.19972078 -13.25 11.0625 C-12.29547286 10.09580191 -11.34104517 9.12900561 -10.38671875 8.16210938 C-9.48050781 7.25396484 -8.57429687 6.34582031 -7.640625 5.41015625 C-6.82110352 4.58652588 -6.00158203 3.76289551 -5.15722656 2.91430664 C-3 1 -3 1 0 0 Z " fill="#327DDC" transform="translate(760,195)"/>
<path d="M0 0 C0.66 0 1.32 0 2 0 C3.7479503 5.24385089 4.19392201 9.47322267 4 15 C3.01 15.495 3.01 15.495 2 16 C1.53248212 18.35599235 1.53248212 18.35599235 1.375 21.0625 C1.30023437 21.98160156 1.22546875 22.90070313 1.1484375 23.84765625 C1.09945312 24.55792969 1.05046875 25.26820313 1 26 C-1 24 -1 24 -1.24291992 22.1081543 C-1.23881104 21.35445557 -1.23470215 20.60075684 -1.23046875 19.82421875 C-1.22853516 18.99599609 -1.22660156 18.16777344 -1.22460938 17.31445312 C-1.21236328 16.44755859 -1.20011719 15.58066406 -1.1875 14.6875 C-1.18685547 13.83220703 -1.18621094 12.97691406 -1.18554688 12.09570312 C-1.15660213 7.94373976 -1.04304979 4.04703319 0 0 Z " fill="#337BD6" transform="translate(633,124)"/>
<path d="M0 0 C3.53177423 1.17725808 4.11539006 2.15232042 6.25 5.11328125 C6.8584375 5.94923828 7.466875 6.78519531 8.09375 7.64648438 C8.7228125 8.52626953 9.351875 9.40605469 10 10.3125 C10.94359375 11.61477539 10.94359375 11.61477539 11.90625 12.94335938 C13.08155828 14.56563341 14.25376906 16.19015925 15.421875 17.81762695 C16.47477704 19.27367449 17.56949898 20.70036292 18.703125 22.09448242 C20 24 20 24 20 27 C16.36939413 25.78979804 15.89109674 24.75523833 13.8125 21.625 C11.15887176 17.70666383 8.4669287 13.8305581 5.6875 10 C5.03136719 9.0925 4.37523437 8.185 3.69921875 7.25 C2.0481917 4.9561057 2.0481917 4.9561057 0 3 C0 2.01 0 1.02 0 0 Z " fill="#337CDB" transform="translate(723,411)"/>
<path d="M0 0 C0.33 0 0.66 0 1 0 C2.75896147 9.89415827 1.99117709 19.74224342 1 29.6875 C0.90460937 30.68716797 0.80921875 31.68683594 0.7109375 32.71679688 C0.47857196 35.14501674 0.24154365 37.57267899 0 40 C-0.33 40 -0.66 40 -1 40 C-1.02945039 35.58334775 -1.04694816 31.16672133 -1.0625 26.75 C-1.07087891 25.51507813 -1.07925781 24.28015625 -1.08789062 23.0078125 C-1.10821886 15.28308496 -0.79005315 7.68498153 0 0 Z " fill="#2E79DA" transform="translate(623,261)"/>
<path d="M0 0 C0.66 0 1.32 0 2 0 C2 0.66 2 1.32 2 2 C2.66 2 3.32 2 4 2 C2.56590028 5.35861695 0.80630679 7.35874939 -1.9375 9.75 C-2.62714844 10.36359375 -3.31679688 10.9771875 -4.02734375 11.609375 C-6 13 -6 13 -9 13 C-9 12.01 -9 11.02 -9 10 C-8.34 10 -7.68 10 -7 10 C-6.773125 9.46375 -6.54625 8.9275 -6.3125 8.375 C-4.54429911 5.17539839 -2.46329797 2.70962777 0 0 Z " fill="#327AD7" transform="translate(375,616)"/>
<path d="M0 0 C0.66 0.66 1.32 1.32 2 2 C-3.64575957 9.34971115 -9.29830174 16.69351911 -15 24 C-15.33 23.01 -15.66 22.02 -16 21 C-15.03125 19.30859375 -15.03125 19.30859375 -13.5 17.4375 C-10.28014486 13.39763502 -7.38655869 9.1997184 -4.515625 4.90625 C-4.01546875 4.2771875 -3.5153125 3.648125 -3 3 C-2.34 3 -1.68 3 -1 3 C-0.67 2.01 -0.34 1.02 0 0 Z " fill="#3480D8" transform="translate(738,268)"/>
<path d="M0 0 C2.08984375 0.41796875 2.08984375 0.41796875 4 1 C0.6189962 5.13621084 -2.66590534 8.81316569 -7 12 C-7 11.34 -7 10.68 -7 10 C-7.66 10 -8.32 10 -9 10 C-9 9.34 -9 8.68 -9 8 C-9.66 7.67 -10.32 7.34 -11 7 C-8 5 -8 5 -5.5 4.0625 C-2.95483002 3.1822757 -2.95483002 3.1822757 -1.4375 1.3125 C-0.963125 0.879375 -0.48875 0.44625 0 0 Z " fill="#3F88DE" transform="translate(386,608)"/>
<path d="M0 0 C0.33 0 0.66 0 1 0 C1.02923559 3.85415052 1.04687777 7.70827215 1.0625 11.5625 C1.07087891 12.64853516 1.07925781 13.73457031 1.08789062 14.85351562 C1.10459218 20.34832611 0.98582259 25.58961935 0 31 C-0.66 30.67 -1.32 30.34 -2 30 C-2.35762486 19.86729571 -1.24844065 10.03211235 0 0 Z " fill="#327ADC" transform="translate(657,503)"/>
<path d="M0 0 C5.23280276 2.18063093 7.61161351 6.45207018 10.8125 10.9375 C11.42287109 11.76185547 12.03324219 12.58621094 12.66210938 13.43554688 C13.23380859 14.22896484 13.80550781 15.02238281 14.39453125 15.83984375 C14.91893799 16.56550537 15.44334473 17.29116699 15.98364258 18.03881836 C16.31904053 18.6860083 16.65443848 19.33319824 17 20 C16.67 20.99 16.34 21.98 16 23 C15.67 22.01 15.34 21.02 15 20 C14.34 20 13.68 20 13 20 C11.57958984 18.37939453 11.57958984 18.37939453 9.9609375 16.1328125 C9.09082031 14.92818359 9.09082031 14.92818359 8.203125 13.69921875 C7.59984375 12.84972656 6.9965625 12.00023437 6.375 11.125 C5.76398437 10.28324219 5.15296875 9.44148438 4.5234375 8.57421875 C0 2.26361956 0 2.26361956 0 0 Z " fill="#3078DB" transform="translate(705,387)"/>
<path d="M0 0 C0.66 0 1.32 0 2 0 C1.40716913 3.60571107 -0.02741777 5.54429438 -2.4375 8.25 C-3.05496094 8.95640625 -3.67242187 9.6628125 -4.30859375 10.390625 C-6 12 -6 12 -8 12 C-8.20625 12.721875 -8.4125 13.44375 -8.625 14.1875 C-10.45248163 17.9255306 -12.70438806 19.49246917 -16 22 C-16 18.00456863 -14.65470385 17.23282709 -11.9375 14.375 C-8.13675139 10.2984873 -4.70027468 6.11290488 -1.41015625 1.6171875 C-0.94480469 1.08351563 -0.47945313 0.54984375 0 0 Z " fill="#2D7BDC" transform="translate(494,475)"/>
<path d="M0 0 C-2.59796096 2.72873081 -5.45269142 5.06362468 -8.375 7.4375 C-9.31085937 8.19933594 -10.24671875 8.96117187 -11.2109375 9.74609375 C-13.80077473 11.83900143 -16.39756638 13.9227848 -19 16 C-18.13377185 10.85887968 -14.69207959 8.39640997 -11 5 C-10.46503906 4.484375 -9.93007813 3.96875 -9.37890625 3.4375 C-6.2452374 0.57243133 -4.27313261 -0.62840186 0 0 Z " fill="#2E78DA" transform="translate(626,400)"/>
<path d="M0 0 C0.66 0 1.32 0 2 0 C-0.11354744 4.47753876 -2.98312296 8.23544986 -5.9375 12.1875 C-6.47568359 12.92419922 -7.01386719 13.66089844 -7.56835938 14.41992188 C-8.09107422 15.12052734 -8.61378906 15.82113281 -9.15234375 16.54296875 C-9.62663818 17.18258545 -10.10093262 17.82220215 -10.58959961 18.48120117 C-12 20 -12 20 -15 21 C-13.57506007 16.77114601 -11.49615034 13.89577914 -8.625 10.5 C-7.85414063 9.5821875 -7.08328125 8.664375 -6.2890625 7.71875 C-5.53367187 6.8215625 -4.77828125 5.924375 -4 5 C-3.28585937 4.0615625 -2.57171875 3.123125 -1.8359375 2.15625 C-1.23007812 1.4446875 -0.62421875 0.733125 0 0 Z " fill="#387FDC" transform="translate(836,139)"/>
<path d="M0 0 C0.33 0.99 0.66 1.98 1 3 C-11.30769231 15.65384615 -11.30769231 15.65384615 -16 18 C-16.66 17.34 -17.32 16.68 -18 16 C-12.04288271 10.61662147 -6.0614973 5.26571414 0 0 Z " fill="#337CD3" transform="translate(435,566)"/>
<path d="M0 0 C0.99 0.33 1.98 0.66 3 1 C2.01 1.33 1.02 1.66 0 2 C-0.73323796 4.01508358 -0.73323796 4.01508358 -1 6 C-1.66 6 -2.32 6 -3 6 C-3.2475 6.5775 -3.495 7.155 -3.75 7.75 C-5.17288843 10.31119917 -6.9333048 11.9333048 -9 14 C-10.00568242 15.66324401 -11.00664799 17.32936253 -12 19 C-12.66 19.33 -13.32 19.66 -14 20 C-13.46884174 16.19575843 -12.61644882 14.08632635 -10.05859375 11.23046875 C-9.47529297 10.56982422 -8.89199219 9.90917969 -8.29101562 9.22851562 C-7.67935547 8.55498047 -7.06769531 7.88144531 -6.4375 7.1875 C-5.82197266 6.49462891 -5.20644531 5.80175781 -4.57226562 5.08789062 C-3.05651651 3.38414162 -1.53242086 1.68874494 0 0 Z " fill="#307CDA" transform="translate(469,505)"/>
<path d="M0 0 C0.66 0.33 1.32 0.66 2 1 C1.56408185 10.14280961 0.9577539 19.02854522 -1 28 C-1.33 28 -1.66 28 -2 28 C-2.35677166 8.2189936 -2.35677166 8.2189936 0 0 Z " fill="#3A88E1" transform="translate(655,533)"/>
<path d="M0 0 C0.66 0 1.32 0 2 0 C2.50314563 2.77029586 3.00263838 5.5411652 3.5 8.3125 C3.71462891 9.49102539 3.71462891 9.49102539 3.93359375 10.69335938 C4.06894531 11.45068359 4.20429687 12.20800781 4.34375 12.98828125 C4.46943359 13.68477783 4.59511719 14.38127441 4.72460938 15.09887695 C5 17 5 17 5 20 C4.01 20 3.02 20 2 20 C0.57997892 13.2168636 -0.22731216 6.93302093 0 0 Z " fill="#3784DD" transform="translate(642,513)"/>
<path d="M0 0 C5.6073673 0.41630454 8.5587241 2.50258079 12.75 5.9375 C13.32621094 6.39318359 13.90242187 6.84886719 14.49609375 7.31835938 C16.76766758 9.12661686 18.94582557 10.94582557 21 13 C18.03312444 13.26691614 16.49274876 13.34395796 14.0078125 11.609375 C13.38648438 10.99578125 12.76515625 10.3821875 12.125 9.75 C9.55192251 7.33316251 7.17120251 5.36632702 4.0625 3.6875 C1 2 1 2 0 0 Z " fill="#2F76DB" transform="translate(525,233)"/>
<path d="M0 0 C-1.52673561 3.38230658 -3.50252978 6.10259949 -5.8125 9 C-6.47894531 9.845625 -7.14539063 10.69125 -7.83203125 11.5625 C-10.03709555 14.04170743 -12.35504303 16.00589632 -15 18 C-15.66 17.67 -16.32 17.34 -17 17 C-15.71937515 15.2925002 -14.38232443 13.62626404 -13 12 C-12.34 12 -11.68 12 -11 12 C-10.7421875 11.42765625 -10.484375 10.8553125 -10.21875 10.265625 C-8.88634058 7.78871005 -7.34943882 5.8658834 -5.5 3.75 C-4.8915625 3.04359375 -4.283125 2.3371875 -3.65625 1.609375 C-2 0 -2 0 0 0 Z " fill="#2B75DD" transform="translate(539,425)"/>
<path d="M0 0 C0.33 0.99 0.66 1.98 1 3 C-9.57894737 13.78637771 -9.57894737 13.78637771 -13 16 C-13.99 15.67 -14.98 15.34 -16 15 C-11.70328082 10.5824356 -7.27195049 6.40403459 -2.6015625 2.3828125 C-1.71147181 1.61429517 -0.83152881 0.83152881 0 0 Z " fill="#3376D5" transform="translate(604,415)"/>
<path d="M0 0 C0.66 0.66 1.32 1.32 2 2 C-2.79077028 6.9255107 -7.77674023 11.53648711 -13 16 C-13.33 15.01 -13.66 14.02 -14 13 C-4.58997722 3.40546697 -4.58997722 3.40546697 0 0 Z " fill="#387FD4" transform="translate(479,527)"/>
<path d="M0 0 C0.66 0.33 1.32 0.66 2 1 C0.78275556 2.77904957 -0.44933657 4.54794546 -1.6875 6.3125 C-2.71423828 7.79169922 -2.71423828 7.79169922 -3.76171875 9.30078125 C-5.99636093 11.99561152 -7.90962664 13.41422172 -11 15 C-10.40912149 11.10020183 -8.52472941 8.82683872 -6.0625 5.8125 C-5.35222656 4.93207031 -4.64195312 4.05164063 -3.91015625 3.14453125 C-2 1 -2 1 0 0 Z " fill="#2D7DDB" transform="translate(399,588)"/>
<path d="M0 0 C0.66 0.33 1.32 0.66 2 1 C0.43632643 4.52238047 -1.69495889 7.27123994 -4.125 10.25 C-4.84945313 11.14203125 -5.57390625 12.0340625 -6.3203125 12.953125 C-7.15175781 13.96632813 -7.15175781 13.96632813 -8 15 C-9.32 14.67 -10.64 14.34 -12 14 C-11.38511719 13.32453125 -10.77023437 12.6490625 -10.13671875 11.953125 C-9.32847656 11.06109375 -8.52023437 10.1690625 -7.6875 9.25 C-6.88699219 8.36828125 -6.08648437 7.4865625 -5.26171875 6.578125 C-3.39083089 4.44550672 -1.65915714 2.29812057 0 0 Z " fill="#2777DF" transform="translate(421,561)"/>
<path d="M0 0 C3.3 0.33 6.6 0.66 10 1 C10.33 1.99 10.66 2.98 11 4 C7.93466836 5.53266582 4.73245728 5.10276471 1.375 5.0625 C0.66859375 5.05798828 -0.0378125 5.05347656 -0.765625 5.04882812 C-2.51045275 5.03703875 -4.255237 5.01910324 -6 5 C-6 4.67 -6 4.34 -6 4 C-2.535 3.505 -2.535 3.505 1 3 C0.67 2.01 0.34 1.02 0 0 Z " fill="#2166D0" transform="translate(863,347)"/>
<path d="M0 0 C0.33 0 0.66 0 1 0 C1.338329 3.20782685 1.66976146 6.41633098 2 9.625 C2.09539063 10.52863281 2.19078125 11.43226563 2.2890625 12.36328125 C2.75579891 16.93063039 3.12222799 21.40117188 3 26 C0.93147447 22.49741264 0.42179085 19.19295993 -0.125 15.1875 C-0.29257812 14.00542969 -0.46015625 12.82335937 -0.6328125 11.60546875 C-0.9967002 8.03240126 -1.13507844 4.58858391 -1 1 C-0.67 0.67 -0.34 0.34 0 0 Z " fill="#3C82D7" transform="translate(653,238)"/>
<path d="M0 0 C2.51981546 3.77972319 2.93922059 7.08404565 3.6875 11.5 C3.82994141 12.27214844 3.97238281 13.04429687 4.11914062 13.83984375 C5.12616943 19.62149171 5.12616943 19.62149171 4 23 C1.31530696 16.93025922 -0.13564793 12.47960916 -0.0625 5.75 C-0.04896484 4.13351562 -0.04896484 4.13351562 -0.03515625 2.484375 C-0.02355469 1.66453125 -0.01195312 0.8446875 0 0 Z " fill="#4086DB" transform="translate(646,536)"/>
<path d="M0 0 C0.66 0 1.32 0 2 0 C0.62159784 2.83338222 -0.86418386 5.55688806 -2.5 8.25 C-2.9228125 8.95640625 -3.345625 9.6628125 -3.78125 10.390625 C-4.38453125 11.18726563 -4.38453125 11.18726563 -5 12 C-5.66 12 -6.32 12 -7 12 C-7.28875 12.639375 -7.5775 13.27875 -7.875 13.9375 C-9 16 -9 16 -11 17 C-10.4365584 12.84461818 -7.9997581 10.0203939 -5.5 6.8125 C-5.08363281 6.26658203 -4.66726563 5.72066406 -4.23828125 5.15820312 C-1.23028274 1.23028274 -1.23028274 1.23028274 0 0 Z " fill="#2D6EDB" transform="translate(779,214)"/>
<path d="M0 0 C2.35084834 0.38671018 3.67969817 0.67348591 5.37207031 2.39868164 C5.77006836 2.97996826 6.16806641 3.56125488 6.578125 4.16015625 C7.01640625 4.78857422 7.4546875 5.41699219 7.90625 6.06445312 C8.57140625 7.05348633 8.57140625 7.05348633 9.25 8.0625 C9.70890625 8.72572266 10.1678125 9.38894531 10.640625 10.07226562 C11.77035676 11.70802307 12.88651173 13.35314234 14 15 C13.01 15 12.02 15 11 15 C9.0625 12.98828125 9.0625 12.98828125 7 10.3125 C6.319375 9.44238281 5.63875 8.57226562 4.9375 7.67578125 C3.13482537 5.18620036 1.53445648 2.66132296 0 0 Z " fill="#2C79DA" transform="translate(537,266)"/>
<path d="M0 0 C-1.44950405 4.35647645 -3.67747112 7.31757289 -6.625 10.8125 C-7.85089844 12.27623047 -7.85089844 12.27623047 -9.1015625 13.76953125 C-10.04128906 14.87361328 -10.04128906 14.87361328 -11 16 C-11.66 15.67 -12.32 15.34 -13 15 C-11.92333797 13.2458877 -10.83836661 11.49687413 -9.75 9.75 C-9.14671875 8.77546875 -8.5434375 7.8009375 -7.921875 6.796875 C-3.25139665 0 -3.25139665 0 0 0 Z " fill="#2B7ADD" transform="translate(862,107)"/>
<path d="M0 0 C1.62332428 2.90003127 2.32053986 5.24570706 2.6328125 8.546875 C2.71660156 9.39121094 2.80039062 10.23554688 2.88671875 11.10546875 C2.96535156 11.97816406 3.04398438 12.85085938 3.125 13.75 C3.21136719 14.63816406 3.29773438 15.52632813 3.38671875 16.44140625 C3.59823066 18.62702936 3.80240227 20.81308238 4 23 C3.34 23 2.68 23 2 23 C0.29005228 15.2441657 -0.24923458 7.93396732 0 0 Z " fill="#2F7AD6" transform="translate(628,420)"/>
<path d="M0 0 C4.94960059 0.43672946 7.34151544 2.79882601 11 6 C11.928125 6.53625 12.85625 7.0725 13.8125 7.625 C16 9 16 9 17 12 C14.0280615 10.87548273 11.66559313 9.77706209 9 8 C9 7.34 9 6.68 9 6 C8.2575 5.7525 7.515 5.505 6.75 5.25 C3.79875938 3.90852699 2.15185026 2.39094474 0 0 Z " fill="#286CDD" transform="translate(676,415)"/>
<path d="M0 0 C0.33 1.32 0.66 2.64 1 4 C-2.63 7.3 -6.26 10.6 -10 14 C-10.66 13.34 -11.32 12.68 -12 12 C-8.04 8.04 -4.08 4.08 0 0 Z " fill="#327CDB" transform="translate(818,137)"/>
<path d="M0 0 C2.46800047 1.15173355 4.04783565 2.04783565 6 4 C6.7425 4.268125 7.485 4.53625 8.25 4.8125 C11.8477586 6.36607758 14.12858705 8.32891819 17 11 C17 11.66 17 12.32 17 13 C12.68711193 11.52769684 9.28218566 9.23423235 5.6875 6.5 C4.86282227 5.89478516 4.86282227 5.89478516 4.02148438 5.27734375 C2.63992549 4.23731309 1.31443702 3.12366546 0 2 C0 1.34 0 0.68 0 0 Z " fill="#2A75D9" transform="translate(736,458)"/>
<path d="M0 0 C0.66 0 1.32 0 2 0 C2 1.98 2 3.96 2 6 C2.66 6 3.32 6 4 6 C4.2475 5.38125 4.495 4.7625 4.75 4.125 C6.20628639 1.64931313 7.37812506 1.04874998 10 0 C8.6957672 3.9126984 7.21065261 6.37310241 4 9 C3.01 9 2.02 9 1 9 C0.67 6.03 0.34 3.06 0 0 Z " fill="#2666DC" transform="translate(659,283)"/>
<path d="M0 0 C3.00957228 1.98590824 6.0078806 3.98789439 9 6 C9.7115625 6.47566406 10.423125 6.95132812 11.15625 7.44140625 C12.8079938 8.57528775 14.40947849 9.78172821 16 11 C16 11.66 16 12.32 16 13 C12.21730051 11.6257099 9.06761995 9.8996556 5.75 7.625 C4.87859375 7.03976562 4.0071875 6.45453125 3.109375 5.8515625 C0.8559608 3.87356559 0.33511666 2.92582625 0 0 Z " fill="#256CE0" transform="translate(595,281)"/>
<path d="M0 0 C7.20516644 2.93543818 10.77983101 9.31195671 14 16 C9.62113634 14.45512053 7.40854246 11.02730515 4.75 7.4375 C4.06164062 6.53354492 4.06164062 6.53354492 3.359375 5.61132812 C0 1.15715681 0 1.15715681 0 0 Z " fill="#2875DC" transform="translate(516,238)"/>
<path d="M0 0 C-0.66 1.32 -1.32 2.64 -2 4 C-2.66 4 -3.32 4 -4 4 C-4 4.66 -4 5.32 -4 6 C-5.96875 7.7265625 -5.96875 7.7265625 -8.5 9.625 C-9.75296875 10.57246094 -9.75296875 10.57246094 -11.03125 11.5390625 C-11.6809375 12.02117188 -12.330625 12.50328125 -13 13 C-13.66 12.67 -14.32 12.34 -15 12 C-13.58653438 10.55935235 -12.16908789 9.12260985 -10.75 7.6875 C-9.96109375 6.88699219 -9.1721875 6.08648438 -8.359375 5.26171875 C-2.87046632 0 -2.87046632 0 0 0 Z " fill="#2A72D7" transform="translate(412,589)"/>
<path d="M0 0 C3.32445643 6.06224407 4.36108506 13.13938387 4 20 C3.34 20 2.68 20 2 20 C0.3879491 13.23514355 -0.26618595 6.95041086 0 0 Z " fill="#337DD7" transform="translate(639,492)"/>
<path d="M0 0 C-2.55991624 2.01136276 -5.04590299 3.62845496 -8 5 C-7.34 5.66 -6.68 6.32 -6 7 C-6.375 9.125 -6.375 9.125 -7 11 C-7.86657116 9.90554162 -8.71792724 8.79902219 -9.5625 7.6875 C-10.03816406 7.07261719 -10.51382813 6.45773437 -11.00390625 5.82421875 C-11.33261719 5.22222656 -11.66132812 4.62023437 -12 4 C-11.67 3.01 -11.34 2.02 -11 1 C-7.26562152 0.12132271 -3.83225427 -0.08912219 0 0 Z " fill="#327ADA" transform="translate(707,371)"/>
<path d="M0 0 C0.33 0 0.66 0 1 0 C1.90413673 3.83724172 2.10576898 7.37502274 2.0625 11.3125 C2.05347656 12.38113281 2.04445313 13.44976562 2.03515625 14.55078125 C2.02355469 15.35902344 2.01195312 16.16726563 2 17 C1.34 17 0.68 17 0 17 C-0.90654677 11.67403774 -1.39446773 6.40652829 -1 1 C-0.67 0.67 -0.34 0.34 0 0 Z " fill="#377DDB" transform="translate(626,402)"/>
<path d="M0 0 C6.27 0.33 12.54 0.66 19 1 C19 1.33 19 1.66 19 2 C9.98185679 3.14516104 1.0719352 3.09471858 -8 3 C-8 2.67 -8 2.34 -8 2 C-5.36 2 -2.72 2 0 2 C0 1.34 0 0.68 0 0 Z " fill="#357CDA" transform="translate(555,335)"/>
<path d="M0 0 C0.66 0 1.32 0 2 0 C0.55797524 4.15151338 -1.5010438 7.29978445 -4.125 10.8125 C-5.21167969 12.27623047 -5.21167969 12.27623047 -6.3203125 13.76953125 C-6.87460937 14.50558594 -7.42890625 15.24164063 -8 16 C-8.66 15.67 -9.32 15.34 -10 15 C-8.37940026 11.45493808 -6.27370948 8.40978743 -4 5.25 C-3.29875 4.26515625 -2.5975 3.2803125 -1.875 2.265625 C-0.946875 1.14414063 -0.946875 1.14414063 0 0 Z " fill="#3981D9" transform="translate(814,167)"/>
<path d="M0 0 C0.99 0.33 1.98 0.66 3 1 C1.625 3 1.625 3 0 5 C-0.66 5 -1.32 5 -2 5 C-2.20625 5.556875 -2.4125 6.11375 -2.625 6.6875 C-4.55000774 9.92501302 -7.03850902 11.68231141 -10 14 C-8.62815653 9.93501119 -6.77931541 7.32603439 -3.875 4.1875 C-3.15054687 3.39730469 -2.42609375 2.60710938 -1.6796875 1.79296875 C-1.12539063 1.20128906 -0.57109375 0.60960937 0 0 Z " fill="#2E76D9" transform="translate(445,533)"/>
<path d="M0 0 C6.93 0.99 13.86 1.98 21 3 C17.10090847 5.59939435 14.35005607 4.90942403 9.9375 4.3125 C8.83825195 4.19358398 8.83825195 4.19358398 7.71679688 4.07226562 C5.58984375 3.80078125 5.58984375 3.80078125 2 3 C1.34 2.01 0.68 1.02 0 0 Z " fill="#2470D2" transform="translate(484,358)"/>
<path d="M0 0 C0.33 0 0.66 0 1 0 C2.59295252 7.04321983 3.1710655 12.85650045 2 20 C1.67 20 1.34 20 1 20 C-0.05619003 15.71702469 -0.11702092 11.57014354 -0.0625 7.1875 C-0.05798828 6.49462891 -0.05347656 5.80175781 -0.04882812 5.08789062 C-0.03713156 3.39188932 -0.01919924 1.69593297 0 0 Z " fill="#2F72DD" transform="translate(632,444)"/>
<path d="M0 0 C5.08938811 1.59043379 8.87456643 4.7446951 13 8 C12.34 8.66 11.68 9.32 11 10 C9.16106176 8.71632558 7.32897375 7.42283239 5.5 6.125 C4.4790625 5.40570313 3.458125 4.68640625 2.40625 3.9453125 C1.6121875 3.30335938 0.818125 2.66140625 0 2 C0 1.34 0 0.68 0 0 Z " fill="#3880DB" transform="translate(724,449)"/>
<path d="M0 0 C8.35010941 1.17286652 8.35010941 1.17286652 11.0625 4.625 C11.371875 5.40875 11.68125 6.1925 12 7 C7.65432161 7 6.99459211 6.61611416 3.75 4.0625 C3.04359375 3.51722656 2.3371875 2.97195313 1.609375 2.41015625 C1.07828125 1.94480469 0.5471875 1.47945313 0 1 C0 0.67 0 0.34 0 0 Z " fill="#3172D2" transform="translate(774,487)"/>
<path d="M0 0 C1.79133978 -0.05391993 3.58313899 -0.09275571 5.375 -0.125 C6.37273437 -0.14820313 7.37046875 -0.17140625 8.3984375 -0.1953125 C11 0 11 0 13 2 C6.97403427 3.0712828 1.11090483 3.09945415 -5 3 C-5 2.67 -5 2.34 -5 2 C-3.35 1.67 -1.7 1.34 0 1 C0 0.67 0 0.34 0 0 Z " fill="#307AD5" transform="translate(457,344)"/>
<path d="M0 0 C0.33 1.32 0.66 2.64 1 4 C-0.43359375 6.359375 -0.43359375 6.359375 -2.4375 8.75 C-3.42556641 9.94882813 -3.42556641 9.94882813 -4.43359375 11.171875 C-4.95050781 11.77515625 -5.46742188 12.3784375 -6 13 C-6.99 12.67 -7.98 12.34 -9 12 C-6.03 8.04 -3.06 4.08 0 0 Z " fill="#327CD7" transform="translate(756,244)"/>
<path d="M0 0 C4.46583264 1.35748971 6.2437667 3.14969824 8.8125 7 C9.41707031 7.886875 10.02164063 8.77375 10.64453125 9.6875 C12 12 12 12 12 14 C11.34 14 10.68 14 10 14 C8.6328125 12.4609375 8.6328125 12.4609375 7.125 10.375 C6.5990625 9.65054688 6.073125 8.92609375 5.53125 8.1796875 C3.63688 5.4831098 1.79599788 2.76307366 0 0 Z " fill="#2569DD" transform="translate(503,221)"/>
<path d="M0 0 C0.33 1.32 0.66 2.64 1 4 C-0.43359375 6.359375 -0.43359375 6.359375 -2.4375 8.75 C-3.42556641 9.94882813 -3.42556641 9.94882813 -4.43359375 11.171875 C-4.95050781 11.77515625 -5.46742188 12.3784375 -6 13 C-6.99 12.67 -7.98 12.34 -9 12 C-6.03 8.04 -3.06 4.08 0 0 Z " fill="#377CD9" transform="translate(802,183)"/>
<path d="M0 0 C0.33 0 0.66 0 1 0 C1 6.93 1 13.86 1 21 C0.34 20.67 -0.32 20.34 -1 20 C-1.4140625 17.93359375 -1.4140625 17.93359375 -1.625 15.4375 C-1.69976563 14.61121094 -1.77453125 13.78492188 -1.8515625 12.93359375 C-1.90054688 12.29550781 -1.94953125 11.65742188 -2 11 C-1.34 11 -0.68 11 0 11 C0 7.37 0 3.74 0 0 Z " fill="#3F83DA" transform="translate(625,248)"/>
<path d="M0 0 C1.32 0 2.64 0 4 0 C4 0.99 4 1.98 4 3 C4.99 3.33 5.98 3.66 7 4 C8.6875 7.5625 8.6875 7.5625 10 11 C6.31353859 9.54144353 4.83856029 7.69770955 2.75 4.375 C1.96882812 3.14910156 1.96882812 3.14910156 1.171875 1.8984375 C0.78515625 1.27195313 0.3984375 0.64546875 0 0 Z " fill="#3881DC" transform="translate(528,254)"/>
<path d="M0 0 C0.33 0 0.66 0 1 0 C1.10331031 7.42686315 0.99862699 14.63512596 0 22 C-0.33 22 -0.66 22 -1 22 C-1.33 17.38 -1.66 12.76 -2 8 C-1.67 8 -1.34 8 -1 8 C-0.67 5.36 -0.34 2.72 0 0 Z " fill="#328DE5" transform="translate(659,489)"/>
<path d="M0 0 C0 0.66 0 1.32 0 2 C-11.52164009 2.18451025 -11.52164009 2.18451025 -17 1 C-17 0.67 -17 0.34 -17 0 C-11.23073111 -1.40333568 -5.81856895 -0.67296616 0 0 Z " fill="#1B6BDA" transform="translate(775,339)"/>
<path d="M0 0 C0.33 0.99 0.66 1.98 1 3 C-0.43359375 5.26171875 -0.43359375 5.26171875 -2.4375 7.6875 C-3.09621094 8.49574219 -3.75492188 9.30398438 -4.43359375 10.13671875 C-4.95050781 10.75160156 -5.46742188 11.36648438 -6 12 C-6.66 11.34 -7.32 10.68 -8 10 C-5.36 6.7 -2.72 3.4 0 0 Z " fill="#3487DB" transform="translate(720,292)"/>
<path d="M0 0 C0.99 0.33 1.98 0.66 3 1 C2.0479279 2.00596297 1.08812654 3.00461563 0.125 4 C-0.40867187 4.556875 -0.94234375 5.11375 -1.4921875 5.6875 C-3 7 -3 7 -5 7 C-5.33 7.99 -5.66 8.98 -6 10 C-8.0625 10.6875 -8.0625 10.6875 -10 11 C-6.79239749 7.19364503 -3.59253891 3.45436433 0 0 Z " fill="#327ADA" transform="translate(720,232)"/>
<path d="M0 0 C0.66 0.99 1.32 1.98 2 3 C1.2575 3.8971875 1.2575 3.8971875 0.5 4.8125 C-1.28276418 6.97029994 -1.28276418 6.97029994 -1 10 C-2.32 10 -3.64 10 -5 10 C-4.38545304 6.00544473 -2.29353263 3.25533664 0 0 Z " fill="#367ED8" transform="translate(695,324)"/>
<path d="M0 0 C0.33 0.99 0.66 1.98 1 3 C-0.43359375 5.48046875 -0.43359375 5.48046875 -2.4375 8.1875 C-3.09621094 9.08855469 -3.75492188 9.98960937 -4.43359375 10.91796875 C-5.20896484 11.94857422 -5.20896484 11.94857422 -6 13 C-6.66 12.34 -7.32 11.68 -8 11 C-5.36 7.37 -2.72 3.74 0 0 Z " fill="#3B81D6" transform="translate(766,231)"/>
<path d="M0 0 C0.33 1.32 0.66 2.64 1 4 C-1.1875 6.8125 -1.1875 6.8125 -4 9 C-5.32 8.67 -6.64 8.34 -8 8 C-5.36 5.36 -2.72 2.72 0 0 Z " fill="#2F8AE6" transform="translate(729,223)"/>
<path d="M0 0 C0.33 0 0.66 0 1 0 C1 3.63 1 7.26 1 11 C0.01 11 -0.98 11 -2 11 C-2.28571429 3.57142857 -2.28571429 3.57142857 0 0 Z " fill="#4284C3" transform="translate(653,567)"/>
<path d="M0 0 C0 0.66 0 1.32 0 2 C-0.66 2 -1.32 2 -2 2 C-2.0825 2.61875 -2.165 3.2375 -2.25 3.875 C-3 6 -3 6 -4.9375 7.3125 C-5.618125 7.539375 -6.29875 7.76625 -7 8 C-7.66 7.67 -8.32 7.34 -9 7 C-8.07347299 5.82460004 -7.13336613 4.65989423 -6.1875 3.5 C-5.66542969 2.8503125 -5.14335938 2.200625 -4.60546875 1.53125 C-3 0 -3 0 0 0 Z " fill="#2C6BE3" transform="translate(581,376)"/>
<path d="M0 0 C0.66 0.99 1.32 1.98 2 3 C0.02 5.64 -1.96 8.28 -4 11 C-4.66 10.67 -5.32 10.34 -6 10 C-4.6302836 6.00499382 -2.74277578 3.19990508 0 0 Z " fill="#328EDE" transform="translate(786,204)"/>
<path d="M0 0 C0 0.66 0 1.32 0 2 C-0.66 2 -1.32 2 -2 2 C-2.2475 2.639375 -2.495 3.27875 -2.75 3.9375 C-4 6 -4 6 -6.0625 6.625 C-6.701875 6.74875 -7.34125 6.8725 -8 7 C-8.33 7.66 -8.66 8.32 -9 9 C-8.44706396 4.02357564 -5.06735917 0 0 0 Z " fill="#2970E2" transform="translate(829,129)"/>
<path d="M0 0 C0.66 0 1.32 0 2 0 C4.125 6.625 4.125 6.625 3 10 C2.34 10 1.68 10 1 10 C0.67 6.7 0.34 3.4 0 0 Z M4 5 C4.66 5 5.32 5 6 5 C5.67 5.99 5.34 6.98 5 8 C4.67 7.01 4.34 6.02 4 5 Z " fill="#326AD2" transform="translate(649,561)"/>
<path d="M0 0 C-1.5830577 4.2742558 -4.50568404 6.26531794 -8 9 C-8.66 8.67 -9.32 8.34 -10 8 C-8.33333333 6.33333333 -6.66666667 4.66666667 -5 3 C-4.443125 2.401875 -3.88625 1.80375 -3.3125 1.1875 C-2 0 -2 0 0 0 Z " fill="#327BD5" transform="translate(509,502)"/>
<path d="M0 0 C0.66 0 1.32 0 2 0 C3.03590199 5.05002222 3.10251672 9.87416389 3 15 C2.67 15 2.34 15 2 15 C0.53329887 9.77487721 -0.22577402 5.4185766 0 0 Z " fill="#3981DB" transform="translate(634,461)"/>
<path d="M0 0 C0.66 0 1.32 0 2 0 C2.66 2.64 3.32 5.28 4 8 C2.35 8 0.7 8 -1 8 C-0.67 5.36 -0.34 2.72 0 0 Z " fill="#2B80DB" transform="translate(633,124)"/>
<path d="M0 0 C0.99 0.33 1.98 0.66 3 1 C2.04956626 2.33897583 1.08940853 3.67105427 0.125 5 C-0.40867187 5.7425 -0.94234375 6.485 -1.4921875 7.25 C-2.23855469 8.11625 -2.23855469 8.11625 -3 9 C-3.66 9 -4.32 9 -5 9 C-3.7508258 5.54074837 -2.32472205 2.85306797 0 0 Z " fill="#3885DC" transform="translate(847,123)"/>
<path d="M0 0 C3.39417765 3.12621626 5.6062718 5.56541027 7 10 C6.01 10.495 6.01 10.495 5 11 C4.15504811 9.92570402 3.32445142 8.84010798 2.5 7.75 C2.0359375 7.14671875 1.571875 6.5434375 1.09375 5.921875 C0 4 0 4 0 0 Z " fill="#296FDB" transform="translate(565,300)"/>
<path d="M0 0 C1.83863505 1.11631414 3.67079723 2.24329627 5.5 3.375 C6.5209375 4.00148437 7.541875 4.62796875 8.59375 5.2734375 C9.3878125 5.84320313 10.181875 6.41296875 11 7 C11 7.66 11 8.32 11 9 C7.40852194 7.66602243 4.1156084 6.25016162 1 4 C0.359375 1.8984375 0.359375 1.8984375 0 0 Z " fill="#2471D8" transform="translate(506,217)"/>
<path d="M0 0 C0.66 0 1.32 0 2 0 C0.34832443 3.5786304 -1.78286492 6.74820188 -4 10 C-4.99 9.67 -5.98 9.34 -7 9 C-5.88266271 7.49428343 -4.75589965 5.99555708 -3.625 4.5 C-2.99851562 3.6646875 -2.37203125 2.829375 -1.7265625 1.96875 C-1.15679688 1.3190625 -0.58703125 0.669375 0 0 Z " fill="#2C7ADA" transform="translate(836,139)"/>
<path d="M0 0 C0.33 0 0.66 0 1 0 C1 3.96 1 7.92 1 12 C0.01 12.33 -0.98 12.66 -2 13 C-2.625 11.125 -2.625 11.125 -3 9 C-2.34 8.34 -1.68 7.68 -1 7 C-0.59952556 4.67724823 -0.2602896 2.34260643 0 0 Z " fill="#347CDB" transform="translate(654,554)"/>
<path d="M0 0 C1.9375 0.8125 1.9375 0.8125 4 2 C4.33 2.99 4.66 3.98 5 5 C2.525 4.01 2.525 4.01 0 3 C0 5.64 0 8.28 0 11 C-0.33 11 -0.66 11 -1 11 C-1.02688151 9.35425434 -1.04634123 7.70838587 -1.0625 6.0625 C-1.07410156 5.14597656 -1.08570313 4.22945313 -1.09765625 3.28515625 C-1 1 -1 1 0 0 Z " fill="#2974DD" transform="translate(666,406)"/>
<path d="M0 0 C1.65 0.99 3.3 1.98 5 3 C4.34 4.65 3.68 6.3 3 8 C1.02 8 -0.96 8 -3 8 C0 6 0 6 2 5 C1.34 3.35 0.68 1.7 0 0 Z " fill="#2A6AE0" transform="translate(583,326)"/>
<path d="M0 0 C0.66 0 1.32 0 2 0 C1.52797514 4.24822374 -0.96655518 6.19989709 -4 9 C-3.4739075 5.21213403 -2.61896089 2.82847776 0 0 Z " fill="#2974DF" transform="translate(509,457)"/>
<path d="M0 0 C0.598125 0.763125 1.19625 1.52625 1.8125 2.3125 C3.84004112 4.91335259 3.84004112 4.91335259 5.75 6.6875 C7 8 7 8 7 10 C3.64501065 8.61172854 1.84949545 7.14414226 0 4 C0 2.68 0 1.36 0 0 Z " fill="#2975DD" transform="translate(755,452)"/>
<path d="M0 0 C0.33 0 0.66 0 1 0 C1.33 3.63 1.66 7.26 2 11 C-3 9 -3 9 -5 6 C-3.68 6.33 -2.36 6.66 -1 7 C-0.67 4.69 -0.34 2.38 0 0 Z " fill="#2C81E2" transform="translate(621,292)"/>
<path d="M0 0 C-1.44077046 3.36179774 -3.24750021 5.59156268 -6 8 C-6.66 8 -7.32 8 -8 8 C-6.48291727 4.46014029 -4.24676932 0 0 0 Z " fill="#3475DA" transform="translate(565,452)"/>
<path d="M0 0 C0.66 0.33 1.32 0.66 2 1 C1.21654285 2.17219543 0.42297164 3.33763668 -0.375 4.5 C-0.81585937 5.1496875 -1.25671875 5.799375 -1.7109375 6.46875 C-2.13632812 6.9740625 -2.56171875 7.479375 -3 8 C-3.66 8 -4.32 8 -5 8 C-4.45773019 4.20411134 -2.79872437 2.52788007 0 0 Z " fill="#327EDC" transform="translate(516,450)"/>
<path d="M0 0 C0 3 0 3 -1.53125 4.82421875 C-2.1809375 5.43910156 -2.830625 6.05398438 -3.5 6.6875 C-4.1496875 7.31011719 -4.799375 7.93273437 -5.46875 8.57421875 C-5.9740625 9.04472656 -6.479375 9.51523437 -7 10 C-7.33 9.01 -7.66 8.02 -8 7 C-5.36 4.69 -2.72 2.38 0 0 Z " fill="#397FDD" transform="translate(527,439)"/>
<path d="M0 0 C2.64 1.65 5.28 3.3 8 5 C7.67 5.99 7.34 6.98 7 8 C3.83282717 6.41641358 2.26731682 5.54736301 0.6875 2.3125 C0.460625 1.549375 0.23375 0.78625 0 0 Z " fill="#2E91DD" transform="translate(556,253)"/>
<path d="M0 0 C0 0.99 0 1.98 0 3 C-0.99 3.33 -1.98 3.66 -3 4 C-3.33 4.66 -3.66 5.32 -4 6 C-4.33 6.66 -4.66 7.32 -5 8 C-5.99 8.33 -6.98 8.66 -8 9 C-6.4169423 4.7257442 -3.49431596 2.73468206 0 0 Z " fill="#3781D6" transform="translate(386,605)"/>
<path d="M0 0 C-1.39332574 3.36720387 -2.9789286 4.9859524 -6 7 C-6.33 6.01 -6.66 5.02 -7 4 C-6.34 4 -5.68 4 -5 4 C-4.67 3.01 -4.34 2.02 -4 1 C-2 0 -2 0 0 0 Z " fill="#3980D6" transform="translate(445,559)"/>
<path d="M0 0 C0.66 0.33 1.32 0.66 2 1 C0.08864614 4.53600465 -1.62642766 6.78972846 -5 9 C-4.38722388 6.03824877 -3.74627478 4.61941217 -2 2 C-1.34 2 -0.68 2 0 2 C0 1.34 0 0.68 0 0 Z " fill="#3084DA" transform="translate(545,415)"/>
<path d="M0 0 C0.33 0 0.66 0 1 0 C1.2226746 1.43534841 1.42761906 2.87345525 1.625 4.3125 C1.74101563 5.11300781 1.85703125 5.91351563 1.9765625 6.73828125 C2 9 2 9 0 12 C-1.17661508 8.32307787 -1.14475933 4.8361222 -1 1 C-0.67 0.67 -0.34 0.34 0 0 Z " fill="#4B88D8" transform="translate(653,238)"/>
<path d="M0 0 C1.96809657 3.93619314 2.67811457 6.65454676 3 11 C2.34 11.66 1.68 12.32 1 13 C0.67 8.71 0.34 4.42 0 0 Z " fill="#3980D6" transform="translate(650,228)"/>
<path d="M0 0 C3.57104439 1.87949705 5.54744301 3.17053157 7 7 C6.01 7 5.02 7 4 7 C0 2.65714286 0 2.65714286 0 0 Z " fill="#3B83DC" transform="translate(744,440)"/>
<path d="M0 0 C0.66 0.33 1.32 0.66 2 1 C1.360625 1.78375 0.72125 2.5675 0.0625 3.375 C-1.98142313 5.79539281 -1.98142313 5.79539281 -3 8 C-4.32 7.67 -5.64 7.34 -7 7 C-4.69 4.69 -2.38 2.38 0 0 Z " fill="#2B88E2" transform="translate(792,162)"/>
<path d="M0 0 C-1.24976756 3.65316671 -1.67098753 4.78065836 -5 7 C-5.33 6.01 -5.66 5.02 -6 4 C-2.25 0 -2.25 0 0 0 Z " fill="#377FD9" transform="translate(411,576)"/>
<path d="M0 0 C0.99 0 1.98 0 3 0 C2.3125 1.9375 2.3125 1.9375 1 4 C-1.625 4.75 -1.625 4.75 -4 5 C-2.1875 2.5 -2.1875 2.5 0 0 Z " fill="#2D6FDC" transform="translate(491,516)"/>
<path d="M0 0 C1.31611677 0.95336021 2.62778961 1.91285774 3.9375 2.875 C4.66839844 3.40867187 5.39929688 3.94234375 6.15234375 4.4921875 C8 6 8 6 9 8 C5.08158173 6.69386058 2.67359191 5.16870152 0 2 C0 1.34 0 0.68 0 0 Z " fill="#2A6BDC" transform="translate(573,265)"/>
<path d="M0 0 C0.66 0 1.32 0 2 0 C0.79618552 2.49361571 -0.45428722 4.68143083 -2 7 C-2.99 6.67 -3.98 6.34 -5 6 C-3.38405168 3.95880212 -1.7143618 1.95927063 0 0 Z " fill="#337AD8" transform="translate(779,214)"/>
<path d="M0 0 C0.66 0 1.32 0 2 0 C0.73058503 3.91402949 -0.51167694 5.79072873 -4 8 C-3.40312566 4.65750371 -2.26396123 2.53563658 0 0 Z " fill="#387FDD" transform="translate(791,198)"/>
<path d="M0 0 C0.33 1.32 0.66 2.64 1 4 C0.34 4 -0.32 4 -1 4 C-1.33 4.99 -1.66 5.98 -2 7 C-2.99 7 -3.98 7 -5 7 C-4.34 5.68 -3.68 4.36 -3 3 C-2.34 3 -1.68 3 -1 3 C-0.67 2.01 -0.34 1.02 0 0 Z " fill="#2699E4" transform="translate(800,154)"/>
<path d="M0 0 C0.99 0.66 1.98 1.32 3 2 C2.67 2.33 2.34 2.66 2 3 C2.99 3.66 3.98 4.32 5 5 C4.01 5.66 3.02 6.32 2 7 C2 6.34 2 5.68 2 5 C1.34 5 0.68 5 0 5 C0 4.34 0 3.68 0 3 C-0.66 2.67 -1.32 2.34 -2 2 C-1.34 1.34 -0.68 0.68 0 0 Z " fill="#29A0E6" transform="translate(377,613)"/>
<path d="M0 0 C2.375 0.6875 2.375 0.6875 5 2 C6.3125 4.625 6.3125 4.625 7 7 C3.17053157 5.54744301 1.87949705 3.57104439 0 0 Z " fill="#2A77DB" transform="translate(576,318)"/>
<path d="M0 0 C0.99 0.33 1.98 0.66 3 1 C1.02 3.97 1.02 3.97 -1 7 C-1.66 6.67 -2.32 6.34 -3 6 C-2 4 -1 2 0 0 Z " fill="#2D66DE" transform="translate(711,303)"/>
<path d="M0 0 C0.66 0.66 1.32 1.32 2 2 C0.35 3.32 -1.3 4.64 -3 6 C-3.66 5.34 -4.32 4.68 -5 4 C-3.35 2.68 -1.7 1.36 0 0 Z " fill="#3A83D8" transform="translate(396,601)"/>
<path d="M0 0 C0.99 0.33 1.98 0.66 3 1 C1.35 2.65 -0.3 4.3 -2 6 C-2 4.68 -2 3.36 -2 2 C-1.34 2 -0.68 2 0 2 C0 1.34 0 0.68 0 0 Z " fill="#3B81D7" transform="translate(414,584)"/>
<path d="M0 0 C-1.75 4.875 -1.75 4.875 -4 6 C-4.66 5.34 -5.32 4.68 -6 4 C-2.25 0 -2.25 0 0 0 Z " fill="#3A83DD" transform="translate(405,583)"/>
<path d="M0 0 C0.33 0.99 0.66 1.98 1 3 C-0.25 4.5625 -0.25 4.5625 -2 6 C-4.1875 5.6875 -4.1875 5.6875 -6 5 C-4.02 3.35 -2.04 1.7 0 0 Z " fill="#3981D6" transform="translate(452,551)"/>
<path d="M0 0 C0.99 0.33 1.98 0.66 3 1 C0.03 3.475 0.03 3.475 -3 6 C-3.66 5.34 -4.32 4.68 -5 4 C-2.6875 1.9375 -2.6875 1.9375 0 0 Z " fill="#357ED5" transform="translate(486,521)"/>
<path d="M0 0 C1.485 0.99 1.485 0.99 3 2 C2.67 4.97 2.34 7.94 2 11 C1.67 11 1.34 11 1 11 C0.67 7.37 0.34 3.74 0 0 Z " fill="#2981E5" transform="translate(637,486)"/>
<path d="M0 0 C3.465 1.485 3.465 1.485 7 3 C7 3.99 7 4.98 7 6 C4.50638429 4.79618552 2.31856917 3.54571278 0 2 C0 1.34 0 0.68 0 0 Z " fill="#2E7DDC" transform="translate(767,481)"/>
<path d="M0 0 C1.9375 0.75 1.9375 0.75 4 2 C4.75 4.125 4.75 4.125 5 6 C4.01 6 3.02 6 2 6 C0 3 0 3 0 0 Z " fill="#3090E0" transform="translate(750,447)"/>
<path d="M0 0 C-1.39332574 3.36720387 -2.9789286 4.9859524 -6 7 C-5.37162381 3.35541809 -4.14650034 0 0 0 Z " fill="#377AD1" transform="translate(613,409)"/>
<path d="M0 0 C0.625 1.8125 0.625 1.8125 1 4 C0.01 5.485 0.01 5.485 -1 7 C-2.32 6.67 -3.64 6.34 -5 6 C-3.35 4.02 -1.7 2.04 0 0 Z " fill="#246BE1" transform="translate(560,397)"/>
<path d="M0 0 C0.66 1.32 1.32 2.64 2 4 C1.01 4.99 0.02 5.98 -1 7 C-1.66 6.67 -2.32 6.34 -3 6 C-2 4 -1 2 0 0 Z " fill="#3889DE" transform="translate(567,389)"/>
<path d="M0 0 C4.875 2.625 4.875 2.625 6 6 C3.5625 5.25 3.5625 5.25 1 4 C0.1875 1.875 0.1875 1.875 0 0 Z " fill="#367CDD" transform="translate(517,225)"/>
<path d="M0 0 C0.66 0.33 1.32 0.66 2 1 C-0.97 3.475 -0.97 3.475 -4 6 C-4.33 5.01 -4.66 4.02 -5 3 C-2.625 1.4375 -2.625 1.4375 0 0 Z " fill="#3A80DE" transform="translate(760,195)"/>
</svg>
